<?xml version="1.0" encoding="UTF-8" standalone="no"?>
<svg width="16px" height="16px" viewBox="0 0 16 16" version="1.1" xmlns="http://www.w3.org/2000/svg" xmlns:xlink="http://www.w3.org/1999/xlink">
    <!-- Generator: Sketch 3.7 (28169) - http://www.bohemiancoding.com/sketch -->
    <title>face_ang</title>
    <desc>Created with Sketch.</desc>
    <defs>
        <linearGradient x1="50%" y1="0%" x2="50%" y2="100%" id="linearGradient-1">
            <stop stop-color="#FF5A47" offset="0%"></stop>
            <stop stop-color="#EE432F" offset="100%"></stop>
        </linearGradient>
    </defs>
    <g id="最终稿2" stroke="none" stroke-width="1" fill="none" fill-rule="evenodd">
        <g id="faces" transform="translate(-108.000000, -1.000000)">
            <g id="face_ang" transform="translate(108.000000, 1.000000)">
                <path d="M8,16 C12.418278,16 16,12.418278 16,8 C16,3.581722 12.418278,0 8,0 C3.581722,0 0,3.581722 0,8 C0,12.418278 3.581722,16 8,16 Z" id="Oval-43-Copy-34" fill="#CF3D33"></path>
                <path d="M8,15.5 C12.1421356,15.5 15.5,12.1421356 15.5,8 C15.5,3.85786438 12.1421356,0.5 8,0.5 C3.85786438,0.5 0.5,3.85786438 0.5,8 C0.5,12.1421356 3.85786438,15.5 8,15.5 Z" id="Oval-43-Copy-38" fill="url(#linearGradient-1)"></path>
                <path d="M5.33333333,13.8666667 L6.22858597,9.6 L9.51454646,9.6 L10.5338651,13.8666667 L5.33333333,13.8666667 Z M6.26526121,13.2183001 L6.8451436,10.24846 L8.92828537,10.24846 L9.60272289,13.2183001 L6.26526121,13.2183001 Z" id="Combined-Shape" fill="#B6312C"></path>
                <polygon id="Rectangle-414" fill="#FFFFFF" points="6.26526121 13.2183001 6.8451436 10.24846 8.92828537 10.24846 9.60272289 13.2183001"></polygon>
                <polygon id="Path-452-Copy" fill="#B6312C" transform="translate(10.809087, 5.439332) scale(-1, -1) rotate(-47.000000) translate(-10.809087, -5.439332) " points="13.5592218 5.87597265 8.76335166 4.43933153 8.05895221 5.39713831 13.1927799 6.43933153"></polygon>
                <polygon id="Path-452-Copy-2" fill="#B6312C" transform="translate(5.122048, 5.538567) scale(1, -1) rotate(-47.000000) translate(-5.122048, -5.538567) " points="7.87218278 5.9752079 3.07631266 4.53856678 2.37191322 5.49637356 7.50574086 6.53856678"></polygon>
                <path d="M6.90021507,7.56976526 C6.14188377,6.93448465 4.40127754,5.53193073 3.97963651,5.53193079 C3.55799548,5.53193085 3.65460944,8.37688994 4.5472676,8.6622607 C5.43992575,8.94763147 7.65854637,8.20504587 6.90021507,7.56976526 Z" id="Path-454" stroke="#B6312C" stroke-width="0.8" fill="#FFFFFF" transform="translate(5.397018, 7.128529) rotate(-6.000000) translate(-5.397018, -7.128529) "></path>
                <path d="M11.9671543,7.56463692 C11.208823,6.92935631 9.46821676,5.52680239 9.04657573,5.52680245 C8.6249347,5.52680251 8.72154866,8.37176159 9.61420682,8.65713236 C10.506865,8.94250312 12.7254856,8.19991752 11.9671543,7.56463692 Z" id="Path-454-Copy" stroke="#B6312C" stroke-width="0.8" fill="#FFFFFF" transform="translate(10.463957, 7.123401) scale(-1, 1) rotate(-6.000000) translate(-10.463957, -7.123401) "></path>
            </g>
        </g>
    </g>
</svg>