<?xml version="1.0" encoding="UTF-8" standalone="no"?>
<svg width="16px" height="16px" viewBox="0 0 16 16" version="1.1" xmlns="http://www.w3.org/2000/svg" xmlns:xlink="http://www.w3.org/1999/xlink">
    <!-- Generator: Sketch 3.7 (28169) - http://www.bohemiancoding.com/sketch -->
    <title>face_cry</title>
    <desc>Created with Sketch.</desc>
    <defs>
        <linearGradient x1="50%" y1="0%" x2="50%" y2="100%" id="linearGradient-1">
            <stop stop-color="#FFD036" offset="0%"></stop>
            <stop stop-color="#ECB70A" offset="100%"></stop>
        </linearGradient>
        <radialGradient cx="50%" cy="0%" fx="50%" fy="0%" r="95.2339639%" id="radialGradient-2">
            <stop stop-color="#FFFFFF" stop-opacity="0.5" offset="0%"></stop>
            <stop stop-color="#68A6E9" stop-opacity="0.5" offset="100%"></stop>
        </radialGradient>
        <path d="M4.02173919,6.87532156 C4.02173919,6.87532156 3.85409194,14.1366242 4.02173919,14.6270006 C4.18938643,15.1173769 6.05810443,15.5851304 6.05810443,15.5851304 C6.05810443,15.5851304 6.05810445,6.99165613 6.05810445,6.59659848 C6.05810445,6.20154083 4.02173919,6.87532156 4.02173919,6.87532156 Z" id="path-3"></path>
        <path d="M12.0339297,6.80990909 C12.0339297,6.80990909 12.2015769,14.1151571 12.0339297,14.6055334 C11.8662825,15.0959097 9.99756445,15.5496252 9.99756445,15.5496252 C9.99756445,15.5496252 9.99756443,6.92624366 9.99756443,6.53118601 C9.99756443,6.13612836 12.0339297,6.80990909 12.0339297,6.80990909 Z" id="path-4"></path>
    </defs>
    <g id="最终稿2" stroke="none" stroke-width="1" fill="none" fill-rule="evenodd">
        <g id="faces" transform="translate(-42.000000, -1.000000)">
            <g id="face_cry" transform="translate(42.000000, 1.000000)">
                <ellipse id="Oval-43-Copy-26" fill="#E39104" cx="8" cy="8" rx="8" ry="8"></ellipse>
                <ellipse id="Oval-43-Copy-27" fill="url(#linearGradient-1)" cx="8" cy="8" rx="7.5" ry="7.5"></ellipse>
                <path d="M6.98091129,6.44523535 L6.98487439,6.44417344 C6.7150739,5.60626455 5.92905254,5 5.0014305,5 C4.07087759,5 3.28282155,5.61010166 3.01544473,6.45212264 L3.01666758,6.4524503 C3.00578888,6.49436892 3,6.53833868 3,6.58366049 C3,6.87130679 3.2331834,7.10449019 3.52082969,7.10449019 C3.7605372,7.10449019 3.96242253,6.94255422 4.02305656,6.72211142 L4.0240068,6.72236604 C4.17080971,6.32497781 4.55303383,6.04165938 5.0014305,6.04165938 C5.44294636,6.04165938 5.82030495,6.31634926 5.97193026,6.704153 C6.02565171,6.93459986 6.23236311,7.10627036 6.47917031,7.10627036 C6.7668166,7.10627036 7,6.87308697 7,6.58544067 C7,6.53686553 6.99335021,6.48984353 6.98091129,6.44523535 Z" id="Combined-Shape-Copy-50" fill="#CA480B" transform="translate(5.000000, 6.053135) scale(1, -1) rotate(-345.000000) translate(-5.000000, -6.053135) "></path>
                <path d="M12.9809113,6.44523535 L12.9848744,6.44417344 C12.7150739,5.60626455 11.9290525,5 11.0014305,5 C10.0708776,5 9.28282155,5.61010166 9.01544473,6.45212264 L9.01666758,6.4524503 C9.00578888,6.49436892 9,6.53833868 9,6.58366049 C9,6.87130679 9.2331834,7.10449019 9.52082969,7.10449019 C9.7605372,7.10449019 9.96242253,6.94255422 10.0230566,6.72211142 L10.0240068,6.72236604 C10.1708097,6.32497781 10.5530338,6.04165938 11.0014305,6.04165938 C11.4429464,6.04165938 11.820305,6.31634926 11.9719303,6.704153 C12.0256517,6.93459986 12.2323631,7.10627036 12.4791703,7.10627036 C12.7668166,7.10627036 13,6.87308697 13,6.58544067 C13,6.53686553 12.9933502,6.48984353 12.9809113,6.44523535 Z" id="Combined-Shape-Copy-51" fill="#CA480B" transform="translate(11.000000, 6.053135) scale(1, -1) rotate(-15.000000) translate(-11.000000, -6.053135) "></path>
                <path d="M6.2837144,11.1104112 C6.20476688,11.0222643 6.13930675,10.9792072 6.05986505,11.0098072 C5.98042334,11.0404072 5.99207809,11.0755315 6.02597157,11.1411335 C6.05986505,11.2067355 6.48645755,11.999936 7.99867098,11.999936 C7.99867099,11.9063782 8.00149201,11.7844062 8.00149201,11.7844062 C8.00149201,11.7844062 6.88397495,11.8220219 6.2837144,11.1104112 Z M9.73163083,11.1104112 C9.81057834,11.0222643 9.87603847,10.9792072 9.95548017,11.0098072 C10.0349219,11.0404072 10.0232671,11.0755315 9.98937365,11.1411335 C9.95548017,11.2067355 9.52888768,11.999936 8.01667424,11.999936 C8.01667423,11.9063782 8.01385322,11.7844062 8.01385322,11.7844062 C8.01385322,11.7844062 9.13137027,11.8220219 9.73163083,11.1104112 Z" id="Combined-Shape" stroke="#CA480B" stroke-width="0.5" fill="#ED8532" transform="translate(8.007673, 11.499968) scale(1, -1) translate(-8.007673, -11.499968) "></path>
                <g id="Path-96-Copy-6">
                    <use fill="#5EA0E6" xlink:href="#path-3"></use>
                    <use fill="url(#radialGradient-2)" xlink:href="#path-3"></use>
                </g>
                <g id="Path-96-Copy-7">
                    <use fill="#5EA0E6" xlink:href="#path-4"></use>
                    <use fill="url(#radialGradient-2)" xlink:href="#path-4"></use>
                </g>
            </g>
        </g>
    </g>
</svg>