<?xml version="1.0" encoding="UTF-8" standalone="no"?>
<svg width="16px" height="16px" viewBox="0 0 16 16" version="1.1" xmlns="http://www.w3.org/2000/svg" xmlns:xlink="http://www.w3.org/1999/xlink" xmlns:sketch="http://www.bohemiancoding.com/sketch/ns">
    <!-- Generator: Sketch 3.3.3 (12072) - http://www.bohemiancoding.com/sketch -->
    <title>Rectangle 76 Copy 34</title>
    <desc>Created with Sketch.</desc>
    <defs>
        <radialGradient cx="50%" cy="30.8898926%" fx="50%" fy="30.8898926%" r="69.1101074%" id="radialGradient-1">
            <stop stop-color="#FFFFFF" stop-opacity="0.798431839" offset="0%"></stop>
            <stop stop-color="#F1F1F1" stop-opacity="0.5" offset="100%"></stop>
        </radialGradient>
        <rect id="path-2" x="0" y="0" width="16" height="16" rx="3"></rect>
        <linearGradient x1="50%" y1="0%" x2="50%" y2="100%" id="linearGradient-3">
            <stop stop-color="#82F903" stop-opacity="0.5" offset="0%"></stop>
            <stop stop-color="#58901C" stop-opacity="0.5" offset="100%"></stop>
        </linearGradient>
        <path d="M16,4 L16,3.0011077 C16,1.34900039 14.652611,0 12.9905224,0 L3.00947762,0 C1.33663106,0 0,1.34364168 0,3.0011077 L0,4 L16,4 Z" id="path-4"></path>
    </defs>
    <g id="Page-1" stroke="none" stroke-width="1" fill="none" fill-rule="evenodd" sketch:type="MSPage">
        <g id="Rectangle-76-Copy-34">
            <use fill="#DBDBDB" fill-rule="evenodd" sketch:type="MSShapeGroup" xlink:href="#path-2"></use>
            <use fill="none" xlink:href="#path-2"></use>
            <use fill="url(#radialGradient-1)" fill-rule="evenodd" xlink:href="#path-2"></use>
        </g>
        <g id="Rectangle-98-Copy-17">
            <use fill="#69AF1F" sketch:type="MSShapeGroup" xlink:href="#path-4"></use>
            <use fill="url(#linearGradient-3)" xlink:href="#path-4"></use>
        </g>
        <path d="M2.968,12.1479652 L2.968,7.8279652 L3.592,7.8279652 L5.008,11.6379652 L5.02,11.6379652 L6.412,7.8279652 L7.03,7.8279652 L7.03,12.1479652 L6.622,12.1479652 L6.622,8.2959652 L6.61,8.2959652 L5.194,12.1479652 L4.81,12.1479652 L3.388,8.2959652 L3.376,8.2959652 L3.376,12.1479652 L2.968,12.1479652 Z M9.964,10.5159652 C9.81199924,10.5799655 9.65800078,10.6219651 9.502,10.6419652 C9.34599922,10.6619653 9.19000078,10.6779651 9.034,10.6899652 C8.75799862,10.7099653 8.54300077,10.7719647 8.389,10.8759652 C8.23499923,10.9799657 8.158,11.1379641 8.158,11.3499652 C8.158,11.4459657 8.17699981,11.5289648 8.215,11.5989652 C8.25300019,11.6689655 8.30299969,11.726965 8.365,11.7729652 C8.42700031,11.8189654 8.49899959,11.8529651 8.581,11.8749652 C8.66300041,11.8969653 8.74599958,11.9079652 8.83,11.9079652 C8.97400072,11.9079652 9.11399932,11.8899654 9.25,11.8539652 C9.38600068,11.817965 9.50699947,11.7629656 9.613,11.6889652 C9.71900053,11.6149648 9.80399968,11.5209658 9.868,11.4069652 C9.93200032,11.2929646 9.964,11.157966 9.964,11.0019652 L9.964,10.5159652 Z M9.358,10.3359652 C9.42600034,10.3279652 9.50699953,10.3159653 9.601,10.2999652 C9.69500047,10.2839651 9.7719997,10.2619653 9.832,10.2339652 C9.8920003,10.2059651 9.92899993,10.1589655 9.943,10.0929652 C9.95700007,10.0269649 9.964,9.96596548 9.964,9.9099652 C9.964,9.72596428 9.90500059,9.57496579 9.787,9.4569652 C9.66899941,9.33896461 9.4700014,9.2799652 9.19,9.2799652 C9.06599938,9.2799652 8.95200052,9.29096509 8.848,9.3129652 C8.74399948,9.33496531 8.65300039,9.37296493 8.575,9.4269652 C8.49699961,9.48096547 8.43300025,9.55296475 8.383,9.6429652 C8.33299975,9.73296565 8.30000008,9.84596452 8.284,9.9819652 L7.918,9.9819652 C7.93000006,9.79796428 7.97199964,9.64096585 8.044,9.5109652 C8.11600036,9.38096455 8.20899943,9.27496561 8.323,9.1929652 C8.43700057,9.11096479 8.56899925,9.05096539 8.719,9.0129652 C8.86900075,8.97496501 9.02799916,8.9559652 9.196,8.9559652 C9.35200078,8.9559652 9.49899931,8.97296503 9.637,9.0069652 C9.77500069,9.04096537 9.89499949,9.09496483 9.997,9.1689652 C10.0990005,9.24296557 10.1789997,9.34196458 10.237,9.4659652 C10.2950003,9.58996582 10.324,9.7419643 10.324,9.9219652 L10.324,11.6139652 C10.324,11.7539659 10.3489997,11.842965 10.399,11.8809652 C10.4490003,11.9189654 10.5499992,11.9099655 10.702,11.8539652 L10.702,12.1359652 C10.6739999,12.1439652 10.6330003,12.1559651 10.579,12.1719652 C10.5249997,12.1879653 10.4720003,12.1959652 10.42,12.1959652 C10.3639997,12.1959652 10.3100003,12.1899653 10.258,12.1779652 C10.1979997,12.1699652 10.1500002,12.1509653 10.114,12.1209652 C10.0779998,12.090965 10.0490001,12.0549654 10.027,12.0129652 C10.0049999,11.970965 9.99000004,11.9249654 9.982,11.8749652 C9.97399996,11.8249649 9.97,11.7719655 9.97,11.7159652 C9.81799924,11.883966 9.64400098,12.0119648 9.448,12.0999652 C9.25199902,12.1879656 9.04000114,12.2319652 8.812,12.2319652 C8.67599932,12.2319652 8.54500063,12.2139654 8.419,12.1779652 C8.29299937,12.141965 8.18200048,12.0859656 8.086,12.0099652 C7.98999952,11.9339648 7.91400028,11.8409657 7.858,11.7309652 C7.80199972,11.6209646 7.774,11.489966 7.774,11.3379652 C7.774,10.8099626 8.13599638,10.4979657 8.86,10.4019652 L9.358,10.3359652 Z M11.242,12.9939652 C11.2900002,13.0019652 11.3389997,13.0099652 11.389,13.0179652 C11.4390003,13.0259652 11.4899997,13.0299652 11.542,13.0299652 C11.6420005,13.0299652 11.7239997,12.9979655 11.788,12.9339652 C11.8520003,12.8699649 11.9049998,12.7929656 11.947,12.7029652 C11.9890002,12.6129647 12.0239999,12.5189657 12.052,12.4209652 C12.0800001,12.3229647 12.1119998,12.2399655 12.148,12.1719652 L10.942,9.0399652 L11.344,9.0399652 L12.34,11.7099652 L13.336,9.0399652 L13.726,9.0399652 L12.568,12.1059652 C12.4959996,12.3019662 12.4270003,12.4779644 12.361,12.6339652 C12.2949997,12.789966 12.2250004,12.9229646 12.151,13.0329652 C12.0769996,13.1429657 11.9950005,13.2269649 11.905,13.2849652 C11.8149996,13.3429655 11.7080006,13.3719652 11.584,13.3719652 C11.5199997,13.3719652 11.4590003,13.3679652 11.401,13.3599652 C11.3429997,13.3519652 11.2900002,13.3419653 11.242,13.3299652 L11.242,12.9939652 Z" id="May-Copy" fill="#4A4A4A" sketch:type="MSShapeGroup"></path>
    </g>
</svg>