<?xml version="1.0" encoding="UTF-8" standalone="no"?>
<svg width="16px" height="16px" viewBox="0 0 16 16" version="1.1" xmlns="http://www.w3.org/2000/svg" xmlns:xlink="http://www.w3.org/1999/xlink" xmlns:sketch="http://www.bohemiancoding.com/sketch/ns">
    <!-- Generator: Sketch 3.3.3 (12072) - http://www.bohemiancoding.com/sketch -->
    <title>Rectangle 76 Copy 30</title>
    <desc>Created with Sketch.</desc>
    <defs>
        <radialGradient cx="50%" cy="30.8898926%" fx="50%" fy="30.8898926%" r="69.1101074%" id="radialGradient-1">
            <stop stop-color="#FFFFFF" stop-opacity="0.798431839" offset="0%"></stop>
            <stop stop-color="#F1F1F1" stop-opacity="0.5" offset="100%"></stop>
        </radialGradient>
        <rect id="path-2" x="0" y="0" width="16" height="16" rx="3"></rect>
        <linearGradient x1="50%" y1="0%" x2="50%" y2="100%" id="linearGradient-3">
            <stop stop-color="#F9764E" stop-opacity="0.744480299" offset="0%"></stop>
            <stop stop-color="#FC0303" stop-opacity="0.5" offset="100%"></stop>
        </linearGradient>
        <path d="M16,4 L16,3.0011077 C16,1.34900039 14.652611,0 12.9905224,0 L3.00947762,0 C1.33663106,0 0,1.34364168 0,3.0011077 L0,4 L16,4 Z" id="path-4"></path>
    </defs>
    <g id="Page-1" stroke="none" stroke-width="1" fill="none" fill-rule="evenodd" sketch:type="MSPage">
        <g id="Rectangle-76-Copy-30">
            <use fill="#DBDBDB" fill-rule="evenodd" sketch:type="MSShapeGroup" xlink:href="#path-2"></use>
            <use fill="none" xlink:href="#path-2"></use>
            <use fill="url(#radialGradient-1)" fill-rule="evenodd" xlink:href="#path-2"></use>
        </g>
        <g id="Rectangle-98-Copy-12">
            <use fill="#E8353A" sketch:type="MSShapeGroup" xlink:href="#path-4"></use>
            <use fill="url(#linearGradient-3)" xlink:href="#path-4"></use>
        </g>
        <path d="M3.54,10.8519652 C3.54,10.9879659 3.54499995,11.1219645 3.555,11.2539652 C3.56500005,11.3859659 3.59499975,11.5049647 3.645,11.6109652 C3.69500025,11.7169657 3.77299947,11.8019649 3.879,11.8659652 C3.98500053,11.9299655 4.13199906,11.9619652 4.32,11.9619652 C4.6000014,11.9619652 4.79699943,11.881966 4.911,11.7219652 C5.02500057,11.5619644 5.082,11.3299667 5.082,11.0259652 L5.082,7.8999652 L5.49,7.8999652 L5.49,11.0379652 C5.49,11.4579673 5.39200098,11.7789641 5.196,12.0009652 C4.99999902,12.2229663 4.6920021,12.3339652 4.272,12.3339652 C4.02799878,12.3339652 3.83200074,12.2929656 3.684,12.2109652 C3.53599926,12.1289648 3.42100041,12.0189659 3.339,11.8809652 C3.25699959,11.7429645 3.20200014,11.5849661 3.174,11.4069652 C3.14599986,11.2289643 3.132,11.0439662 3.132,10.8519652 L3.54,10.8519652 Z M8.466,10.5879652 C8.31399924,10.6519655 8.16000078,10.6939651 8.004,10.7139652 C7.84799922,10.7339653 7.69200078,10.7499651 7.536,10.7619652 C7.25999862,10.7819653 7.04500077,10.8439647 6.891,10.9479652 C6.73699923,11.0519657 6.66,11.2099641 6.66,11.4219652 C6.66,11.5179657 6.67899981,11.6009648 6.717,11.6709652 C6.75500019,11.7409655 6.80499969,11.798965 6.867,11.8449652 C6.92900031,11.8909654 7.00099959,11.9249651 7.083,11.9469652 C7.16500041,11.9689653 7.24799958,11.9799652 7.332,11.9799652 C7.47600072,11.9799652 7.61599932,11.9619654 7.752,11.9259652 C7.88800068,11.889965 8.00899947,11.8349656 8.115,11.7609652 C8.22100053,11.6869648 8.30599968,11.5929658 8.37,11.4789652 C8.43400032,11.3649646 8.466,11.229966 8.466,11.0739652 L8.466,10.5879652 Z M7.86,10.4079652 C7.92800034,10.3999652 8.00899953,10.3879653 8.103,10.3719652 C8.19700047,10.3559651 8.2739997,10.3339653 8.334,10.3059652 C8.3940003,10.2779651 8.43099993,10.2309655 8.445,10.1649652 C8.45900007,10.0989649 8.466,10.0379655 8.466,9.9819652 C8.466,9.79796428 8.40700059,9.64696579 8.289,9.5289652 C8.17099941,9.41096461 7.9720014,9.3519652 7.692,9.3519652 C7.56799938,9.3519652 7.45400052,9.36296509 7.35,9.3849652 C7.24599948,9.40696531 7.15500039,9.44496493 7.077,9.4989652 C6.99899961,9.55296547 6.93500025,9.62496475 6.885,9.7149652 C6.83499975,9.80496565 6.80200008,9.91796452 6.786,10.0539652 L6.42,10.0539652 C6.43200006,9.86996428 6.47399964,9.71296585 6.546,9.5829652 C6.61800036,9.45296455 6.71099943,9.34696561 6.825,9.2649652 C6.93900057,9.18296479 7.07099925,9.12296539 7.221,9.0849652 C7.37100075,9.04696501 7.52999916,9.0279652 7.698,9.0279652 C7.85400078,9.0279652 8.00099931,9.04496503 8.139,9.0789652 C8.27700069,9.11296537 8.39699949,9.16696483 8.499,9.2409652 C8.60100051,9.31496557 8.68099971,9.41396458 8.739,9.5379652 C8.79700029,9.66196582 8.826,9.8139643 8.826,9.9939652 L8.826,11.6859652 C8.826,11.8259659 8.85099975,11.914965 8.901,11.9529652 C8.95100025,11.9909654 9.05199924,11.9819655 9.204,11.9259652 L9.204,12.2079652 C9.17599986,12.2159652 9.13500027,12.2279651 9.081,12.2439652 C9.02699973,12.2599653 8.97400026,12.2679652 8.922,12.2679652 C8.86599972,12.2679652 8.81200026,12.2619653 8.76,12.2499652 C8.6999997,12.2419652 8.65200018,12.2229653 8.616,12.1929652 C8.57999982,12.162965 8.55100011,12.1269654 8.529,12.0849652 C8.50699989,12.042965 8.49200004,11.9969654 8.484,11.9469652 C8.47599996,11.8969649 8.472,11.8439655 8.472,11.7879652 C8.31999924,11.955966 8.14600098,12.0839648 7.95,12.1719652 C7.75399902,12.2599656 7.54200114,12.3039652 7.314,12.3039652 C7.17799932,12.3039652 7.04700063,12.2859654 6.921,12.2499652 C6.79499937,12.213965 6.68400048,12.1579656 6.588,12.0819652 C6.49199952,12.0059648 6.41600028,11.9129657 6.36,11.8029652 C6.30399972,11.6929646 6.276,11.561966 6.276,11.4099652 C6.276,10.8819626 6.63799638,10.5699657 7.362,10.4739652 L7.86,10.4079652 Z M10.128,12.2199652 L9.768,12.2199652 L9.768,9.1119652 L10.128,9.1119652 L10.128,9.5439652 C10.2720007,9.39196444 10.4209992,9.26796568 10.575,9.1719652 C10.7290008,9.07596472 10.9139989,9.0279652 11.13,9.0279652 C11.322001,9.0279652 11.4999992,9.06096487 11.664,9.1269652 C11.8280008,9.19296553 11.9659994,9.30796438 12.078,9.4719652 C12.1540004,9.58396576 12.1989999,9.69896461 12.213,9.8169652 C12.2270001,9.93496579 12.234,10.0579646 12.234,10.1859652 L12.234,12.2199652 L11.874,12.2199652 L11.874,10.1919652 C11.874,9.9119638 11.8120006,9.7019659 11.688,9.5619652 C11.5639994,9.4219645 11.3580014,9.3519652 11.07,9.3519652 C10.9579994,9.3519652 10.8560005,9.36896503 10.764,9.4029652 C10.6719995,9.43696537 10.5890004,9.48196492 10.515,9.5379652 C10.4409996,9.59396548 10.3780003,9.65796484 10.326,9.7299652 C10.2739997,9.80196556 10.2340001,9.8779648 10.206,9.9579652 C10.1699998,10.0579657 10.148,10.1539647 10.14,10.2459652 C10.132,10.3379657 10.128,10.4379647 10.128,10.5459652 L10.128,12.2199652 Z" id="Jan-Copy" fill="#4A4A4A" sketch:type="MSShapeGroup"></path>
    </g>
</svg>