<?xml version="1.0" encoding="UTF-8" standalone="no"?>
<svg width="16px" height="16px" viewBox="0 0 16 16" version="1.1" xmlns="http://www.w3.org/2000/svg" xmlns:xlink="http://www.w3.org/1999/xlink" xmlns:sketch="http://www.bohemiancoding.com/sketch/ns">
    <!-- Generator: Sketch 3.3.3 (12072) - http://www.bohemiancoding.com/sketch -->
    <title>Rectangle 76 Copy 41</title>
    <desc>Created with Sketch.</desc>
    <defs>
        <radialGradient cx="50%" cy="30.8898926%" fx="50%" fy="30.8898926%" r="69.1101074%" id="radialGradient-1">
            <stop stop-color="#FFFFFF" stop-opacity="0.798431839" offset="0%"></stop>
            <stop stop-color="#F1F1F1" stop-opacity="0.5" offset="100%"></stop>
        </radialGradient>
        <rect id="path-2" x="0" y="0" width="16" height="16" rx="3"></rect>
        <linearGradient x1="50%" y1="0%" x2="50%" y2="100%" id="linearGradient-3">
            <stop stop-color="#FB7DB7" stop-opacity="0.5" offset="0%"></stop>
            <stop stop-color="#DB689D" stop-opacity="0.5" offset="100%"></stop>
        </linearGradient>
        <path d="M16,4 L16,3.0011077 C16,1.34900039 14.652611,0 12.9905224,0 L3.00947762,0 C1.33663106,0 0,1.34364168 0,3.0011077 L0,4 L16,4 Z" id="path-4"></path>
    </defs>
    <g id="Page-1" stroke="none" stroke-width="1" fill="none" fill-rule="evenodd" sketch:type="MSPage">
        <g id="Rectangle-76-Copy-41">
            <use fill="#DBDBDB" fill-rule="evenodd" sketch:type="MSShapeGroup" xlink:href="#path-2"></use>
            <use fill="none" xlink:href="#path-2"></use>
            <use fill="url(#radialGradient-1)" fill-rule="evenodd" xlink:href="#path-2"></use>
        </g>
        <g id="Rectangle-98-Copy-23">
            <use fill="#FA72B0" sketch:type="MSShapeGroup" xlink:href="#path-4"></use>
            <use fill="url(#linearGradient-3)" xlink:href="#path-4"></use>
        </g>
        <path d="M2.986,11.1479652 L2.986,6.8279652 L4.462,6.8279652 C4.5820006,6.8279652 4.69999942,6.83096517 4.816,6.8369652 C4.93200058,6.84296523 5.04599944,6.85696509 5.158,6.8789652 C5.27000056,6.90096531 5.37899947,6.93396498 5.485,6.9779652 C5.59100053,7.02196542 5.6939995,7.07996484 5.794,7.1519652 C5.93800072,7.25596572 6.05599954,7.38296445 6.148,7.5329652 C6.24000046,7.68296595 6.31299973,7.84096437 6.367,8.0069652 C6.42100027,8.17296603 6.45899989,8.34096435 6.481,8.5109652 C6.50300011,8.68096605 6.514,8.83796448 6.514,8.9819652 C6.514,9.12596592 6.50500009,9.27196446 6.487,9.4199652 C6.46899991,9.56796594 6.4400002,9.71296449 6.4,9.8549652 C6.3599998,9.99696591 6.30700033,10.1329645 6.241,10.2629652 C6.17499967,10.3929658 6.0920005,10.5119647 5.992,10.6199652 C5.8919995,10.7319658 5.78300059,10.8219649 5.665,10.8899652 C5.54699941,10.9579655 5.42300065,11.010965 5.293,11.0489652 C5.16299935,11.0869654 5.0280007,11.1129651 4.888,11.1269652 C4.7479993,11.1409653 4.60600072,11.1479652 4.462,11.1479652 L2.986,11.1479652 Z M3.394,10.7999652 L4.372,10.7999652 C4.55600092,10.7999652 4.72899919,10.7889653 4.891,10.7669652 C5.05300081,10.7449651 5.21799916,10.6899656 5.386,10.6019652 C5.53000072,10.5299648 5.64799954,10.4319658 5.74,10.3079652 C5.83200046,10.1839646 5.90499973,10.0489659 5.959,9.9029652 C6.01300027,9.75696447 6.05099989,9.603966 6.073,9.4439652 C6.09500011,9.2839644 6.106,9.12996594 6.106,8.9819652 C6.106,8.82596442 6.0960001,8.66696601 6.076,8.5049652 C6.0559999,8.34296439 6.01800028,8.18896593 5.962,8.0429652 C5.90599972,7.89696447 5.83000048,7.76296581 5.734,7.6409652 C5.63799952,7.51896459 5.51400076,7.4179656 5.362,7.3379652 C5.23399936,7.26996486 5.08200088,7.2259653 4.906,7.2059652 C4.72999912,7.1859651 4.5520009,7.1759652 4.372,7.1759652 L3.394,7.1759652 L3.394,10.7999652 Z M9.514,9.3779652 C9.514,9.22596444 9.49300021,9.08296587 9.451,8.9489652 C9.40899979,8.81496453 9.34700041,8.69896569 9.265,8.6009652 C9.18299959,8.50296471 9.08000062,8.42496549 8.956,8.3669652 C8.83199938,8.30896491 8.6900008,8.2799652 8.53,8.2799652 C8.3699992,8.2799652 8.22900061,8.3099649 8.107,8.3699652 C7.98499939,8.4299655 7.88100043,8.5099647 7.795,8.6099652 C7.70899957,8.7099657 7.64000026,8.82596454 7.588,8.9579652 C7.53599974,9.08996586 7.50200008,9.22996446 7.486,9.3779652 L9.514,9.3779652 Z M7.486,9.6779652 C7.486,9.84596604 7.50799978,10.0049644 7.552,10.1549652 C7.59600022,10.3049659 7.66099957,10.4349646 7.747,10.5449652 C7.83300043,10.6549657 7.94199934,10.7429649 8.074,10.8089652 C8.20600066,10.8749655 8.35799914,10.9079652 8.53,10.9079652 C8.76600118,10.9079652 8.96799916,10.8459658 9.136,10.7219652 C9.30400084,10.5979646 9.41599972,10.4219663 9.472,10.1939652 L9.874,10.1939652 C9.82999978,10.3419659 9.77200036,10.4789646 9.7,10.6049652 C9.62799964,10.7309658 9.53800054,10.8409647 9.43,10.9349652 C9.32199946,11.0289657 9.19400074,11.1019649 9.046,11.1539652 C8.89799926,11.2059655 8.72600098,11.2319652 8.53,11.2319652 C8.28199876,11.2319652 8.0680009,11.1899656 7.888,11.1059652 C7.7079991,11.0219648 7.56000058,10.9069659 7.444,10.7609652 C7.32799942,10.6149645 7.24200028,10.4429662 7.186,10.2449652 C7.12999972,10.0469642 7.102,9.83396634 7.102,9.6059652 C7.102,9.37796406 7.13499967,9.1639662 7.201,8.9639652 C7.26700033,8.7639642 7.36099939,8.58896595 7.483,8.4389652 C7.60500061,8.28896445 7.75399912,8.17096563 7.93,8.0849652 C8.10600088,7.99896477 8.30599888,7.9559652 8.53,7.9559652 C8.95800214,7.9559652 9.29399878,8.10296373 9.538,8.3969652 C9.78200122,8.69096667 9.90200002,9.1179624 9.898,9.6779652 L7.486,9.6779652 Z M12.802,9.0179652 C12.7379997,8.78596404 12.6280008,8.60496585 12.472,8.4749652 C12.3159992,8.34496455 12.1180012,8.2799652 11.878,8.2799652 C11.6939991,8.2799652 11.5360007,8.31796482 11.404,8.3939652 C11.2719993,8.46996558 11.1640004,8.57096457 11.08,8.6969652 C10.9959996,8.82296583 10.9340002,8.96496441 10.894,9.1229652 C10.8539998,9.28096599 10.834,9.4399644 10.834,9.5999652 C10.834,9.76396602 10.8529998,9.92396442 10.891,10.0799652 C10.9290002,10.235966 10.9899996,10.3759646 11.074,10.4999652 C11.1580004,10.6239658 11.2659993,10.7229648 11.398,10.7969652 C11.5300007,10.8709656 11.6899991,10.9079652 11.878,10.9079652 C12.1460013,10.9079652 12.3609992,10.8339659 12.523,10.6859652 C12.6850008,10.5379645 12.7879998,10.3339665 12.832,10.0739652 L13.216,10.0739652 C13.1839998,10.2459661 13.1330003,10.4029645 13.063,10.5449652 C12.9929997,10.6869659 12.9030006,10.8089647 12.793,10.9109652 C12.6829995,11.0129657 12.5520008,11.0919649 12.4,11.1479652 C12.2479992,11.2039655 12.074001,11.2319652 11.878,11.2319652 C11.6299988,11.2319652 11.4160009,11.1899656 11.236,11.1059652 C11.0559991,11.0219648 10.9080006,10.9069659 10.792,10.7609652 C10.6759994,10.6149645 10.5900003,10.4419662 10.534,10.2419652 C10.4779997,10.0419642 10.45,9.82796634 10.45,9.5999652 C10.45,9.38396412 10.4809997,9.17696619 10.543,8.9789652 C10.6050003,8.78096421 10.6959994,8.60596596 10.816,8.4539652 C10.9360006,8.30196444 11.0849991,8.18096565 11.263,8.0909652 C11.4410009,8.00096475 11.6459988,7.9559652 11.878,7.9559652 C12.2380018,7.9559652 12.5289989,8.04196434 12.751,8.2139652 C12.9730011,8.38596606 13.1119997,8.65396338 13.168,9.0179652 L12.802,9.0179652 Z" id="Dec-Copy" fill="#4A4A4A" sketch:type="MSShapeGroup"></path>
    </g>
</svg>