<?xml version="1.0" encoding="UTF-8" standalone="no"?>
<svg width="16px" height="16px" viewBox="0 0 16 16" version="1.1" xmlns="http://www.w3.org/2000/svg" xmlns:xlink="http://www.w3.org/1999/xlink" xmlns:sketch="http://www.bohemiancoding.com/sketch/ns">
    <!-- Generator: Sketch 3.3.3 (12072) - http://www.bohemiancoding.com/sketch -->
    <title>Rectangle 76 Copy 32</title>
    <desc>Created with Sketch.</desc>
    <defs>
        <radialGradient cx="50%" cy="30.8898926%" fx="50%" fy="30.8898926%" r="69.1101074%" id="radialGradient-1">
            <stop stop-color="#FFFFFF" stop-opacity="0.798431839" offset="0%"></stop>
            <stop stop-color="#F1F1F1" stop-opacity="0.5" offset="100%"></stop>
        </radialGradient>
        <rect id="path-2" x="0" y="0" width="16" height="16" rx="3"></rect>
        <linearGradient x1="50%" y1="0%" x2="50%" y2="100%" id="linearGradient-3">
            <stop stop-color="#FDC85B" stop-opacity="0.5" offset="0%"></stop>
            <stop stop-color="#D8A131" stop-opacity="0.5" offset="100%"></stop>
        </linearGradient>
        <path d="M16,4 L16,3.0011077 C16,1.34900039 14.652611,0 12.9905224,0 L3.00947762,0 C1.33663106,0 0,1.34364168 0,3.0011077 L0,4 L16,4 Z" id="path-4"></path>
    </defs>
    <g id="Page-1" stroke="none" stroke-width="1" fill="none" fill-rule="evenodd" sketch:type="MSPage">
        <g id="Rectangle-76-Copy-32">
            <use fill="#DBDBDB" fill-rule="evenodd" sketch:type="MSShapeGroup" xlink:href="#path-2"></use>
            <use fill="none" xlink:href="#path-2"></use>
            <use fill="url(#radialGradient-1)" fill-rule="evenodd" xlink:href="#path-2"></use>
        </g>
        <g id="Rectangle-98-Copy-14">
            <use fill="#F4B941" sketch:type="MSShapeGroup" xlink:href="#path-4"></use>
            <use fill="url(#linearGradient-3)" xlink:href="#path-4"></use>
        </g>
        <path d="M2.968,11.6479652 L2.968,7.3279652 L3.592,7.3279652 L5.008,11.1379652 L5.02,11.1379652 L6.412,7.3279652 L7.03,7.3279652 L7.03,11.6479652 L6.622,11.6479652 L6.622,7.7959652 L6.61,7.7959652 L5.194,11.6479652 L4.81,11.6479652 L3.388,7.7959652 L3.376,7.7959652 L3.376,11.6479652 L2.968,11.6479652 Z M9.964,10.0159652 C9.81199924,10.0799655 9.65800078,10.1219651 9.502,10.1419652 C9.34599922,10.1619653 9.19000078,10.1779651 9.034,10.1899652 C8.75799862,10.2099653 8.54300077,10.2719647 8.389,10.3759652 C8.23499923,10.4799657 8.158,10.6379641 8.158,10.8499652 C8.158,10.9459657 8.17699981,11.0289648 8.215,11.0989652 C8.25300019,11.1689655 8.30299969,11.226965 8.365,11.2729652 C8.42700031,11.3189654 8.49899959,11.3529651 8.581,11.3749652 C8.66300041,11.3969653 8.74599958,11.4079652 8.83,11.4079652 C8.97400072,11.4079652 9.11399932,11.3899654 9.25,11.3539652 C9.38600068,11.317965 9.50699947,11.2629656 9.613,11.1889652 C9.71900053,11.1149648 9.80399968,11.0209658 9.868,10.9069652 C9.93200032,10.7929646 9.964,10.657966 9.964,10.5019652 L9.964,10.0159652 Z M9.358,9.8359652 C9.42600034,9.82796516 9.50699953,9.81596528 9.601,9.7999652 C9.69500047,9.78396512 9.7719997,9.76196534 9.832,9.7339652 C9.8920003,9.70596506 9.92899993,9.65896553 9.943,9.5929652 C9.95700007,9.52696487 9.964,9.46596548 9.964,9.4099652 C9.964,9.22596428 9.90500059,9.07496579 9.787,8.9569652 C9.66899941,8.83896461 9.4700014,8.7799652 9.19,8.7799652 C9.06599938,8.7799652 8.95200052,8.79096509 8.848,8.8129652 C8.74399948,8.83496531 8.65300039,8.87296493 8.575,8.9269652 C8.49699961,8.98096547 8.43300025,9.05296475 8.383,9.1429652 C8.33299975,9.23296565 8.30000008,9.34596452 8.284,9.4819652 L7.918,9.4819652 C7.93000006,9.29796428 7.97199964,9.14096585 8.044,9.0109652 C8.11600036,8.88096455 8.20899943,8.77496561 8.323,8.6929652 C8.43700057,8.61096479 8.56899925,8.55096539 8.719,8.5129652 C8.86900075,8.47496501 9.02799916,8.4559652 9.196,8.4559652 C9.35200078,8.4559652 9.49899931,8.47296503 9.637,8.5069652 C9.77500069,8.54096537 9.89499949,8.59496483 9.997,8.6689652 C10.0990005,8.74296557 10.1789997,8.84196458 10.237,8.9659652 C10.2950003,9.08996582 10.324,9.2419643 10.324,9.4219652 L10.324,11.1139652 C10.324,11.2539659 10.3489997,11.342965 10.399,11.3809652 C10.4490003,11.4189654 10.5499992,11.4099655 10.702,11.3539652 L10.702,11.6359652 C10.6739999,11.6439652 10.6330003,11.6559651 10.579,11.6719652 C10.5249997,11.6879653 10.4720003,11.6959652 10.42,11.6959652 C10.3639997,11.6959652 10.3100003,11.6899653 10.258,11.6779652 C10.1979997,11.6699652 10.1500002,11.6509653 10.114,11.6209652 C10.0779998,11.590965 10.0490001,11.5549654 10.027,11.5129652 C10.0049999,11.470965 9.99000004,11.4249654 9.982,11.3749652 C9.97399996,11.3249649 9.97,11.2719655 9.97,11.2159652 C9.81799924,11.383966 9.64400098,11.5119648 9.448,11.5999652 C9.25199902,11.6879656 9.04000114,11.7319652 8.812,11.7319652 C8.67599932,11.7319652 8.54500063,11.7139654 8.419,11.6779652 C8.29299937,11.641965 8.18200048,11.5859656 8.086,11.5099652 C7.98999952,11.4339648 7.91400028,11.3409657 7.858,11.2309652 C7.80199972,11.1209646 7.774,10.989966 7.774,10.8379652 C7.774,10.3099626 8.13599638,9.99796568 8.86,9.9019652 L9.358,9.8359652 Z M11.644,11.6479652 L11.284,11.6479652 L11.284,8.5399652 L11.644,8.5399652 L11.644,9.1219652 L11.656,9.1219652 C11.7560005,8.87396396 11.8849992,8.70096569 12.043,8.6029652 C12.2010008,8.50496471 12.4099987,8.4559652 12.67,8.4559652 L12.67,8.8459652 C12.465999,8.84196518 12.2980007,8.87396486 12.166,8.9419652 C12.0339993,9.00996554 11.9290004,9.10196462 11.851,9.2179652 C11.7729996,9.33396578 11.7190002,9.47096441 11.689,9.6289652 C11.6589998,9.78696599 11.644,9.95196434 11.644,10.1239652 L11.644,11.6479652 Z" id="Mar-Copy" fill="#4A4A4A" sketch:type="MSShapeGroup"></path>
    </g>
</svg>