<?xml version="1.0" encoding="UTF-8" standalone="no"?>
<svg width="16px" height="16px" viewBox="0 0 16 16" version="1.1" xmlns="http://www.w3.org/2000/svg" xmlns:xlink="http://www.w3.org/1999/xlink" xmlns:sketch="http://www.bohemiancoding.com/sketch/ns">
    <!-- Generator: Sketch 3.3.3 (12072) - http://www.bohemiancoding.com/sketch -->
    <title>Rectangle 76 Copy 33</title>
    <desc>Created with Sketch.</desc>
    <defs>
        <radialGradient cx="50%" cy="30.8898926%" fx="50%" fy="30.8898926%" r="69.1101074%" id="radialGradient-1">
            <stop stop-color="#FFFFFF" stop-opacity="0.798431839" offset="0%"></stop>
            <stop stop-color="#F1F1F1" stop-opacity="0.5" offset="100%"></stop>
        </radialGradient>
        <rect id="path-2" x="0" y="0" width="16" height="16" rx="3"></rect>
        <linearGradient x1="50%" y1="0%" x2="50%" y2="100%" id="linearGradient-3">
            <stop stop-color="#82F903" stop-opacity="0.5" offset="0%"></stop>
            <stop stop-color="#58901C" stop-opacity="0.5" offset="100%"></stop>
        </linearGradient>
        <path d="M16,4 L16,3.0011077 C16,1.34900039 14.652611,0 12.9905224,0 L3.00947762,0 C1.33663106,0 0,1.34364168 0,3.0011077 L0,4 L16,4 Z" id="path-4"></path>
    </defs>
    <g id="Page-1" stroke="none" stroke-width="1" fill="none" fill-rule="evenodd" sketch:type="MSPage">
        <g id="Rectangle-76-Copy-33">
            <use fill="#DBDBDB" fill-rule="evenodd" sketch:type="MSShapeGroup" xlink:href="#path-2"></use>
            <use fill="none" xlink:href="#path-2"></use>
            <use fill="url(#radialGradient-1)" fill-rule="evenodd" xlink:href="#path-2"></use>
        </g>
        <g id="Rectangle-98-Copy-15">
            <use fill="#81F803" sketch:type="MSShapeGroup" xlink:href="#path-4"></use>
            <use fill="url(#linearGradient-3)" xlink:href="#path-4"></use>
        </g>
        <path d="M3.59,11.6479652 L5.288,7.3279652 L5.75,7.3279652 L7.406,11.6479652 L6.986,11.6479652 L6.488,10.2919652 L4.52,10.2919652 L4.01,11.6479652 L3.59,11.6479652 Z M4.658,9.9439652 L6.35,9.9439652 L5.504,7.6759652 L4.658,9.9439652 Z M8.336,10.1059652 C8.336,10.2819661 8.35999976,10.4489644 8.408,10.6069652 C8.45600024,10.764966 8.52499955,10.9029646 8.615,11.0209652 C8.70500045,11.1389658 8.81499935,11.2329648 8.945,11.3029652 C9.07500065,11.3729655 9.22199918,11.4079652 9.386,11.4079652 C9.57000092,11.4079652 9.73099931,11.3709656 9.869,11.2969652 C10.0070007,11.2229648 10.1199996,11.1219658 10.208,10.9939652 C10.2960004,10.8659646 10.3599998,10.716966 10.4,10.5469652 C10.4400002,10.3769643 10.456,10.1939662 10.448,9.9979652 C10.448,9.80196422 10.4210003,9.62896595 10.367,9.4789652 C10.3129997,9.32896445 10.2380005,9.20196572 10.142,9.0979652 C10.0459995,8.99396468 9.93400064,8.91496547 9.806,8.8609652 C9.67799936,8.80696493 9.53800076,8.7799652 9.386,8.7799652 C9.21799916,8.7799652 9.06800066,8.81396486 8.936,8.8819652 C8.80399934,8.94996554 8.69400044,9.04296461 8.606,9.1609652 C8.51799956,9.27896579 8.45100023,9.41896439 8.405,9.5809652 C8.35899977,9.74296601 8.336,9.91796426 8.336,10.1059652 L8.336,10.1059652 Z M8.336,12.8719652 L7.976,12.8719652 L7.976,8.5399652 L8.336,8.5399652 L8.336,9.0859652 L8.348,9.0859652 C8.40000026,8.9859647 8.46699959,8.8959656 8.549,8.8159652 C8.63100041,8.7359648 8.72099951,8.66996546 8.819,8.6179652 C8.91700049,8.56596494 9.01799948,8.52596534 9.122,8.4979652 C9.22600052,8.46996506 9.3279995,8.4559652 9.428,8.4559652 C9.68000126,8.4559652 9.89399912,8.49796478 10.07,8.5819652 C10.2460009,8.66596562 10.3909994,8.78096447 10.505,8.9269652 C10.6190006,9.07296593 10.7019997,9.2459642 10.754,9.4459652 C10.8060003,9.6459662 10.832,9.85996406 10.832,10.0879652 C10.832,10.3039663 10.8040003,10.5119642 10.748,10.7119652 C10.6919997,10.9119662 10.6070006,11.0869644 10.493,11.2369652 C10.3789994,11.3869659 10.2350009,11.5069647 10.061,11.5969652 C9.88699913,11.6869656 9.68200118,11.7319652 9.446,11.7319652 C9.2259989,11.7319652 9.01500101,11.6829657 8.813,11.5849652 C8.61099899,11.4869647 8.45200058,11.3419662 8.336,11.1499652 L8.336,12.8719652 Z M11.978,11.6479652 L11.618,11.6479652 L11.618,8.5399652 L11.978,8.5399652 L11.978,9.1219652 L11.99,9.1219652 C12.0900005,8.87396396 12.2189992,8.70096569 12.377,8.6029652 C12.5350008,8.50496471 12.7439987,8.4559652 13.004,8.4559652 L13.004,8.8459652 C12.799999,8.84196518 12.6320007,8.87396486 12.5,8.9419652 C12.3679993,9.00996554 12.2630004,9.10196462 12.185,9.2179652 C12.1069996,9.33396578 12.0530002,9.47096441 12.023,9.6289652 C11.9929999,9.78696599 11.978,9.95196434 11.978,10.1239652 L11.978,11.6479652 Z" id="Apr-Copy" fill="#4A4A4A" sketch:type="MSShapeGroup"></path>
    </g>
</svg>