<?xml version="1.0" encoding="UTF-8" standalone="no"?>
<svg width="16px" height="16px" viewBox="0 0 16 16" version="1.1" xmlns="http://www.w3.org/2000/svg" xmlns:xlink="http://www.w3.org/1999/xlink" xmlns:sketch="http://www.bohemiancoding.com/sketch/ns">
    <!-- Generator: Sketch 3.3.3 (12072) - http://www.bohemiancoding.com/sketch -->
    <title>Rectangle 76 Copy 40</title>
    <desc>Created with Sketch.</desc>
    <defs>
        <radialGradient cx="50%" cy="30.8898926%" fx="50%" fy="30.8898926%" r="69.1101074%" id="radialGradient-1">
            <stop stop-color="#FFFFFF" stop-opacity="0.798431839" offset="0%"></stop>
            <stop stop-color="#F1F1F1" stop-opacity="0.5" offset="100%"></stop>
        </radialGradient>
        <rect id="path-2" x="0" y="0" width="16" height="16" rx="3"></rect>
        <linearGradient x1="50%" y1="0%" x2="50%" y2="100%" id="linearGradient-3">
            <stop stop-color="#F991F7" stop-opacity="0.5" offset="0%"></stop>
            <stop stop-color="#C161BF" stop-opacity="0.5" offset="100%"></stop>
        </linearGradient>
        <path d="M16,4 L16,3.0011077 C16,1.34900039 14.652611,0 12.9905224,0 L3.00947762,0 C1.33663106,0 0,1.34364168 0,3.0011077 L0,4 L16,4 Z" id="path-4"></path>
    </defs>
    <g id="Page-1" stroke="none" stroke-width="1" fill="none" fill-rule="evenodd" sketch:type="MSPage">
        <g id="Rectangle-76-Copy-40">
            <use fill="#DBDBDB" fill-rule="evenodd" sketch:type="MSShapeGroup" xlink:href="#path-2"></use>
            <use fill="none" xlink:href="#path-2"></use>
            <use fill="url(#radialGradient-1)" fill-rule="evenodd" xlink:href="#path-2"></use>
        </g>
        <g id="Rectangle-98-Copy-22">
            <use fill="#FC7BF9" sketch:type="MSShapeGroup" xlink:href="#path-4"></use>
            <use fill="url(#linearGradient-3)" xlink:href="#path-4"></use>
        </g>
        <path d="M3.394,7.8799652 L3.382,7.8799652 L3.382,11.6479652 L2.974,11.6479652 L2.974,7.3279652 L3.436,7.3279652 L5.932,11.1019652 L5.944,11.1019652 L5.944,7.3279652 L6.352,7.3279652 L6.352,11.6479652 L5.878,11.6479652 L3.394,7.8799652 Z M8.5,11.7319652 C8.299999,11.7279652 8.11300087,11.6919655 7.939,11.6239652 C7.76499913,11.5559649 7.61300065,11.4539659 7.483,11.3179652 C7.35299935,11.1819645 7.25000038,11.0119662 7.174,10.8079652 C7.09799962,10.6039642 7.06,10.3659666 7.06,10.0939652 C7.06,9.86596406 7.0899997,9.65296619 7.15,9.4549652 C7.2100003,9.25696421 7.2999994,9.08396594 7.42,8.9359652 C7.5400006,8.78796446 7.6899991,8.67096563 7.87,8.5849652 C8.0500009,8.49896477 8.2599988,8.4559652 8.5,8.4559652 C8.74400122,8.4559652 8.9559991,8.49896477 9.136,8.5849652 C9.3160009,8.67096563 9.4659994,8.78696447 9.586,8.9329652 C9.7060006,9.07896593 9.79499971,9.2519642 9.853,9.4519652 C9.91100029,9.6519662 9.94,9.86596406 9.94,10.0939652 C9.94,10.3419664 9.90600034,10.5659642 9.838,10.7659652 C9.76999966,10.9659662 9.67300063,11.1379645 9.547,11.2819652 C9.42099937,11.4259659 9.26900089,11.5369648 9.091,11.6149652 C8.91299911,11.6929656 8.71600108,11.7319652 8.5,11.7319652 L8.5,11.7319652 Z M9.556,10.0939652 C9.556,9.90996428 9.5360002,9.737966 9.496,9.5779652 C9.4559998,9.4179644 9.39400042,9.27896579 9.31,9.1609652 C9.22599958,9.04296461 9.11800066,8.94996554 8.986,8.8819652 C8.85399934,8.81396486 8.69200096,8.7799652 8.5,8.7799652 C8.31199906,8.7799652 8.15100067,8.81696483 8.017,8.8909652 C7.88299933,8.96496557 7.77400042,9.06296459 7.69,9.1849652 C7.60599958,9.30696581 7.5440002,9.44696441 7.504,9.6049652 C7.4639998,9.76296599 7.444,9.92596436 7.444,10.0939652 C7.444,10.2859662 7.46699977,10.4629644 7.513,10.6249652 C7.55900023,10.786966 7.62599956,10.9259646 7.714,11.0419652 C7.80200044,11.1579658 7.91199934,11.2479649 8.044,11.3119652 C8.17600066,11.3759655 8.32799914,11.4079652 8.5,11.4079652 C8.68800094,11.4079652 8.84899933,11.3709656 8.983,11.2969652 C9.11700067,11.2229648 9.22599958,11.1239658 9.31,10.9999652 C9.39400042,10.8759646 9.4559998,10.735966 9.496,10.5799652 C9.5360002,10.4239644 9.556,10.261966 9.556,10.0939652 L9.556,10.0939652 Z M10.27,8.5399652 L10.66,8.5399652 L11.668,11.2039652 L12.676,8.5399652 L13.066,8.5399652 L11.86,11.6479652 L11.458,11.6479652 L10.27,8.5399652 Z" id="Nov-Copy" fill="#4A4A4A" sketch:type="MSShapeGroup"></path>
    </g>
</svg>