<?xml version="1.0" encoding="UTF-8" standalone="no"?>
<svg width="16px" height="16px" viewBox="0 0 16 16" version="1.1" xmlns="http://www.w3.org/2000/svg" xmlns:xlink="http://www.w3.org/1999/xlink" xmlns:sketch="http://www.bohemiancoding.com/sketch/ns">
    <!-- Generator: Sketch 3.3.3 (12072) - http://www.bohemiancoding.com/sketch -->
    <title>Rectangle 76 Copy 38</title>
    <desc>Created with Sketch.</desc>
    <defs>
        <radialGradient cx="50%" cy="30.8898926%" fx="50%" fy="30.8898926%" r="69.1101074%" id="radialGradient-1">
            <stop stop-color="#FFFFFF" stop-opacity="0.798431839" offset="0%"></stop>
            <stop stop-color="#F1F1F1" stop-opacity="0.5" offset="100%"></stop>
        </radialGradient>
        <rect id="path-2" x="0" y="0" width="16" height="16" rx="3"></rect>
        <linearGradient x1="50%" y1="0%" x2="50%" y2="100%" id="linearGradient-3">
            <stop stop-color="#BA76FB" stop-opacity="0.5" offset="0%"></stop>
            <stop stop-color="#64289E" stop-opacity="0.5" offset="100%"></stop>
        </linearGradient>
        <path d="M16,4 L16,3.0011077 C16,1.34900039 14.652611,0 12.9905224,0 L3.00947762,0 C1.33663106,0 0,1.34364168 0,3.0011077 L0,4 L16,4 Z" id="path-4"></path>
    </defs>
    <g id="Page-1" stroke="none" stroke-width="1" fill="none" fill-rule="evenodd" sketch:type="MSPage">
        <g id="Rectangle-76-Copy-38">
            <use fill="#DBDBDB" fill-rule="evenodd" sketch:type="MSShapeGroup" xlink:href="#path-2"></use>
            <use fill="none" xlink:href="#path-2"></use>
            <use fill="url(#radialGradient-1)" fill-rule="evenodd" xlink:href="#path-2"></use>
        </g>
        <g id="Rectangle-98-Copy-20">
            <use fill="#8D4DCA" sketch:type="MSShapeGroup" xlink:href="#path-4"></use>
            <use fill="url(#linearGradient-3)" xlink:href="#path-4"></use>
        </g>
        <path d="M3.654,10.3579652 C3.67000008,10.5499662 3.71299965,10.7129645 3.783,10.8469652 C3.85300035,10.9809659 3.94299945,11.0899648 4.053,11.1739652 C4.16300055,11.2579656 4.28999928,11.318965 4.434,11.3569652 C4.57800072,11.3949654 4.73199918,11.4139652 4.896,11.4139652 C5.08800096,11.4139652 5.2539993,11.3899654 5.394,11.3419652 C5.5340007,11.293965 5.64799956,11.2289656 5.736,11.1469652 C5.82400044,11.0649648 5.88899979,10.9699657 5.931,10.8619652 C5.97300021,10.7539647 5.994,10.6399658 5.994,10.5199652 C5.994,10.3519644 5.95600038,10.2159657 5.88,10.1119652 C5.80399962,10.0079647 5.70500061,9.92296553 5.583,9.8569652 C5.46099939,9.79096487 5.32100079,9.7379654 5.163,9.6979652 C5.00499921,9.657965 4.84300083,9.61896539 4.677,9.5809652 C4.51099917,9.54296501 4.34900079,9.49796546 4.191,9.4459652 C4.03299921,9.39396494 3.89300061,9.32396564 3.771,9.2359652 C3.64899939,9.14796476 3.55000038,9.03496589 3.474,8.8969652 C3.39799962,8.75896451 3.36,8.58396626 3.36,8.3719652 C3.36,8.22396446 3.39099969,8.0799659 3.453,7.9399652 C3.51500031,7.7999645 3.60699939,7.67596574 3.729,7.5679652 C3.85100061,7.45996466 4.00399908,7.37396552 4.188,7.3099652 C4.37200092,7.24596488 4.5839988,7.2139652 4.824,7.2139652 C5.06800122,7.2139652 5.28099909,7.24796486 5.463,7.3159652 C5.64500091,7.38396554 5.7959994,7.47696461 5.916,7.5949652 C6.0360006,7.71296579 6.1259997,7.84996442 6.186,8.0059652 C6.2460003,8.16196598 6.276,8.32796432 6.276,8.5039652 L5.886,8.5039652 C5.886,8.33996438 5.85700029,8.1979658 5.799,8.0779652 C5.74099971,7.9579646 5.6620005,7.85996558 5.562,7.7839652 C5.4619995,7.70796482 5.34800064,7.65196538 5.22,7.6159652 C5.09199936,7.57996502 4.96000068,7.5619652 4.824,7.5619652 C4.61599896,7.5619652 4.44100071,7.59096491 4.299,7.6489652 C4.15699929,7.70696549 4.04400042,7.78196474 3.96,7.8739652 C3.87599958,7.96596566 3.81800016,8.06796464 3.786,8.1799652 C3.75399984,8.29196576 3.7479999,8.40396464 3.768,8.5159652 C3.79200012,8.6559659 3.84799956,8.76796478 3.936,8.8519652 C4.02400044,8.93596562 4.13199936,9.00496493 4.26,9.0589652 C4.38800064,9.11296547 4.52899923,9.15696503 4.683,9.1909652 C4.83700077,9.22496537 4.9939992,9.26096501 5.154,9.2989652 C5.3140008,9.33696539 5.46899925,9.38196494 5.619,9.4339652 C5.76900075,9.48596546 5.90199942,9.55596476 6.018,9.6439652 C6.13400058,9.73196564 6.22699965,9.84496451 6.297,9.9829652 C6.36700035,10.1209659 6.402,10.2939642 6.402,10.5019652 C6.402,10.9019672 6.26400138,11.2119641 5.988,11.4319652 C5.71199862,11.6519663 5.3240025,11.7619652 4.824,11.7619652 C4.59999888,11.7619652 4.39200096,11.7329655 4.2,11.6749652 C4.00799904,11.6169649 3.8420007,11.5289658 3.702,11.4109652 C3.5619993,11.2929646 3.45300039,11.1469661 3.375,10.9729652 C3.29699961,10.7989643 3.258,10.5939664 3.258,10.3579652 L3.654,10.3579652 Z M9.348,9.8779652 C9.348,9.72596444 9.32700021,9.58296587 9.285,9.4489652 C9.24299979,9.31496453 9.18100041,9.19896569 9.099,9.1009652 C9.01699959,9.00296471 8.91400062,8.92496549 8.79,8.8669652 C8.66599938,8.80896491 8.5240008,8.7799652 8.364,8.7799652 C8.2039992,8.7799652 8.06300061,8.8099649 7.941,8.8699652 C7.81899939,8.9299655 7.71500043,9.0099647 7.629,9.1099652 C7.54299957,9.2099657 7.47400026,9.32596454 7.422,9.4579652 C7.36999974,9.58996586 7.33600008,9.72996446 7.32,9.8779652 L9.348,9.8779652 Z M7.32,10.1779652 C7.32,10.345966 7.34199978,10.5049644 7.386,10.6549652 C7.43000022,10.8049659 7.49499957,10.9349646 7.581,11.0449652 C7.66700043,11.1549657 7.77599934,11.2429649 7.908,11.3089652 C8.04000066,11.3749655 8.19199914,11.4079652 8.364,11.4079652 C8.60000118,11.4079652 8.80199916,11.3459658 8.97,11.2219652 C9.13800084,11.0979646 9.24999972,10.9219663 9.306,10.6939652 L9.708,10.6939652 C9.66399978,10.8419659 9.60600036,10.9789646 9.534,11.1049652 C9.46199964,11.2309658 9.37200054,11.3409647 9.264,11.4349652 C9.15599946,11.5289657 9.02800074,11.6019649 8.88,11.6539652 C8.73199926,11.7059655 8.56000098,11.7319652 8.364,11.7319652 C8.11599876,11.7319652 7.9020009,11.6899656 7.722,11.6059652 C7.5419991,11.5219648 7.39400058,11.4069659 7.278,11.2609652 C7.16199942,11.1149645 7.07600028,10.9429662 7.02,10.7449652 C6.96399972,10.5469642 6.936,10.3339663 6.936,10.1059652 C6.936,9.87796406 6.96899967,9.6639662 7.035,9.4639652 C7.10100033,9.2639642 7.19499939,9.08896595 7.317,8.9389652 C7.43900061,8.78896445 7.58799912,8.67096563 7.764,8.5849652 C7.94000088,8.49896477 8.13999888,8.4559652 8.364,8.4559652 C8.79200214,8.4559652 9.12799878,8.60296373 9.372,8.8969652 C9.61600122,9.19096667 9.73600002,9.6179624 9.732,10.1779652 L7.32,10.1779652 Z M10.836,10.1059652 C10.836,10.2819661 10.8599998,10.4489644 10.908,10.6069652 C10.9560002,10.764966 11.0249996,10.9029646 11.115,11.0209652 C11.2050004,11.1389658 11.3149994,11.2329648 11.445,11.3029652 C11.5750006,11.3729655 11.7219992,11.4079652 11.886,11.4079652 C12.0700009,11.4079652 12.2309993,11.3709656 12.369,11.2969652 C12.5070007,11.2229648 12.6199996,11.1219658 12.708,10.9939652 C12.7960004,10.8659646 12.8599998,10.716966 12.9,10.5469652 C12.9400002,10.3769643 12.956,10.1939662 12.948,9.9979652 C12.948,9.80196422 12.9210003,9.62896595 12.867,9.4789652 C12.8129997,9.32896445 12.7380005,9.20196572 12.642,9.0979652 C12.5459995,8.99396468 12.4340006,8.91496547 12.306,8.8609652 C12.1779994,8.80696493 12.0380008,8.7799652 11.886,8.7799652 C11.7179992,8.7799652 11.5680007,8.81396486 11.436,8.8819652 C11.3039993,8.94996554 11.1940004,9.04296461 11.106,9.1609652 C11.0179996,9.27896579 10.9510002,9.41896439 10.905,9.5809652 C10.8589998,9.74296601 10.836,9.91796426 10.836,10.1059652 L10.836,10.1059652 Z M10.836,12.8719652 L10.476,12.8719652 L10.476,8.5399652 L10.836,8.5399652 L10.836,9.0859652 L10.848,9.0859652 C10.9000003,8.9859647 10.9669996,8.8959656 11.049,8.8159652 C11.1310004,8.7359648 11.2209995,8.66996546 11.319,8.6179652 C11.4170005,8.56596494 11.5179995,8.52596534 11.622,8.4979652 C11.7260005,8.46996506 11.8279995,8.4559652 11.928,8.4559652 C12.1800013,8.4559652 12.3939991,8.49796478 12.57,8.5819652 C12.7460009,8.66596562 12.8909994,8.78096447 13.005,8.9269652 C13.1190006,9.07296593 13.2019997,9.2459642 13.254,9.4459652 C13.3060003,9.6459662 13.332,9.85996406 13.332,10.0879652 C13.332,10.3039663 13.3040003,10.5119642 13.248,10.7119652 C13.1919997,10.9119662 13.1070006,11.0869644 12.993,11.2369652 C12.8789994,11.3869659 12.7350009,11.5069647 12.561,11.5969652 C12.3869991,11.6869656 12.1820012,11.7319652 11.946,11.7319652 C11.7259989,11.7319652 11.515001,11.6829657 11.313,11.5849652 C11.110999,11.4869647 10.9520006,11.3419662 10.836,11.1499652 L10.836,12.8719652 Z" id="Sep-Copy" fill="#4A4A4A" sketch:type="MSShapeGroup"></path>
    </g>
</svg>