<?xml version="1.0" encoding="UTF-8" standalone="no"?>
<svg width="16px" height="16px" viewBox="0 0 16 16" version="1.1" xmlns="http://www.w3.org/2000/svg" xmlns:xlink="http://www.w3.org/1999/xlink" xmlns:sketch="http://www.bohemiancoding.com/sketch/ns">
    <!-- Generator: Sketch 3.3.3 (12072) - http://www.bohemiancoding.com/sketch -->
    <title>Rectangle 76 Copy 37</title>
    <desc>Created with Sketch.</desc>
    <defs>
        <radialGradient cx="50%" cy="30.8898926%" fx="50%" fy="30.8898926%" r="69.1101074%" id="radialGradient-1">
            <stop stop-color="#FFFFFF" stop-opacity="0.798431839" offset="0%"></stop>
            <stop stop-color="#F1F1F1" stop-opacity="0.5" offset="100%"></stop>
        </radialGradient>
        <rect id="path-2" x="0" y="0" width="16" height="16" rx="3"></rect>
        <linearGradient x1="50%" y1="0%" x2="50%" y2="100%" id="linearGradient-3">
            <stop stop-color="#66AFF7" stop-opacity="0.5" offset="0%"></stop>
            <stop stop-color="#3182AD" stop-opacity="0.5" offset="100%"></stop>
        </linearGradient>
        <path d="M16,4 L16,3.0011077 C16,1.34900039 14.652611,0 12.9905224,0 L3.00947762,0 C1.33663106,0 0,1.34364168 0,3.0011077 L0,4 L16,4 Z" id="path-4"></path>
    </defs>
    <g id="Page-1" stroke="none" stroke-width="1" fill="none" fill-rule="evenodd" sketch:type="MSPage">
        <g id="Rectangle-76-Copy-37">
            <use fill="#DBDBDB" fill-rule="evenodd" sketch:type="MSShapeGroup" xlink:href="#path-2"></use>
            <use fill="none" xlink:href="#path-2"></use>
            <use fill="url(#radialGradient-1)" fill-rule="evenodd" xlink:href="#path-2"></use>
        </g>
        <g id="Rectangle-98-Copy-19">
            <use fill="#4F72F8" sketch:type="MSShapeGroup" xlink:href="#path-4"></use>
            <use fill="url(#linearGradient-3)" xlink:href="#path-4"></use>
        </g>
        <path d="M2.09,11.3159652 L3.788,6.9959652 L4.25,6.9959652 L5.906,11.3159652 L5.486,11.3159652 L4.988,9.9599652 L3.02,9.9599652 L2.51,11.3159652 L2.09,11.3159652 Z M3.158,9.6119652 L4.85,9.6119652 L4.004,7.3439652 L3.158,9.6119652 Z M8.54,8.2079652 L8.9,8.2079652 L8.9,11.3159652 L8.54,11.3159652 L8.54,10.8839652 C8.49199976,10.9399655 8.4380003,10.9979649 8.378,11.0579652 C8.3179997,11.1179655 8.24900039,11.1729649 8.171,11.2229652 C8.09299961,11.2729654 8.00200052,11.314965 7.898,11.3489652 C7.79399948,11.3829654 7.67400068,11.3999652 7.538,11.3999652 C7.32999896,11.3999652 7.1560007,11.3709655 7.016,11.3129652 C6.8759993,11.2549649 6.76300043,11.1739657 6.677,11.0699652 C6.59099957,10.9659647 6.52900019,10.8449659 6.491,10.7069652 C6.45299981,10.5689645 6.434,10.417966 6.434,10.2539652 L6.434,8.2079652 L6.794,8.2079652 L6.794,10.2479652 C6.794,10.5159665 6.85599938,10.7209645 6.98,10.8629652 C7.10400062,11.0049659 7.30799858,11.0759652 7.592,11.0759652 C7.74000074,11.0759652 7.87299941,11.0469655 7.991,10.9889652 C8.10900059,10.9309649 8.2079996,10.8499657 8.288,10.7459652 C8.3680004,10.6419647 8.42999978,10.5179659 8.474,10.3739652 C8.51800022,10.2299645 8.54,10.0719661 8.54,9.8999652 L8.54,8.2079652 Z M12.17,9.7739652 C12.17,9.58596426 12.1470002,9.41096601 12.101,9.2489652 C12.0549998,9.08696439 11.9880004,8.94696579 11.9,8.8289652 C11.8119996,8.71096461 11.7020007,8.61796554 11.57,8.5499652 C11.4379993,8.48196486 11.2880008,8.4479652 11.12,8.4479652 C10.9679992,8.4479652 10.8280006,8.47496493 10.7,8.5289652 C10.5719994,8.58296547 10.4600005,8.66196468 10.364,8.7659652 C10.2679995,8.86996572 10.1930003,8.99696445 10.139,9.1469652 C10.0849997,9.29696595 10.058,9.46996422 10.058,9.6659652 C10.05,9.86196618 10.0659998,10.0449643 10.106,10.2149652 C10.1460002,10.384966 10.2099996,10.5339646 10.298,10.6619652 C10.3860004,10.7899658 10.4979993,10.8909648 10.634,10.9649652 C10.7700007,11.0389656 10.9319991,11.0759652 11.12,11.0759652 C11.2840008,11.0759652 11.4309994,11.0409655 11.561,10.9709652 C11.6910006,10.9009648 11.8009995,10.8069658 11.891,10.6889652 C11.9810005,10.5709646 12.0499998,10.432966 12.098,10.2749652 C12.1460002,10.1169644 12.17,9.94996608 12.17,9.7739652 L12.17,9.7739652 Z M12.17,8.2079652 L12.53,8.2079652 L12.53,11.0159652 C12.53,11.2239662 12.5090002,11.4229642 12.467,11.6129652 C12.4249998,11.8029661 12.3500005,11.9699645 12.242,12.1139652 C12.1339995,12.2579659 11.9860009,12.3729648 11.798,12.4589652 C11.6099991,12.5449656 11.3680015,12.5879652 11.072,12.5879652 C10.8439989,12.5879652 10.6480008,12.5589655 10.484,12.5009652 C10.3199992,12.4429649 10.1860005,12.3699656 10.082,12.2819652 C9.97799948,12.1939648 9.89900027,12.0969657 9.845,11.9909652 C9.79099973,11.8849647 9.76200002,11.7859657 9.758,11.6939652 L10.142,11.6939652 C10.1700001,11.8099658 10.2139997,11.9049648 10.274,11.9789652 C10.3340003,12.0529656 10.4049996,12.110965 10.487,12.1529652 C10.5690004,12.1949654 10.6599995,12.2239651 10.76,12.2399652 C10.8600005,12.2559653 10.9639995,12.2639652 11.072,12.2639652 C11.3160012,12.2639652 11.5119993,12.2219656 11.66,12.1379652 C11.8080007,12.0539648 11.9199996,11.9439659 11.996,11.8079652 C12.0720004,11.6719645 12.1209999,11.5179661 12.143,11.3459652 C12.1650001,11.1739643 12.174,10.9979661 12.17,10.8179652 C12.0539994,11.0099662 11.895001,11.1549647 11.693,11.2529652 C11.490999,11.3509657 11.2800011,11.3999652 11.06,11.3999652 C10.8239988,11.3999652 10.6190009,11.3549656 10.445,11.2649652 C10.2709991,11.1749647 10.1270006,11.0549659 10.013,10.9049652 C9.89899943,10.7549644 9.81400028,10.5799662 9.758,10.3799652 C9.70199972,10.1799642 9.674,9.97196628 9.674,9.7559652 C9.674,9.52796406 9.69999974,9.3139662 9.752,9.1139652 C9.80400026,8.9139642 9.88699943,8.74096593 10.001,8.5949652 C10.1150006,8.44896447 10.2599991,8.33396562 10.436,8.2499652 C10.6120009,8.16596478 10.8259987,8.1239652 11.078,8.1239652 C11.1780005,8.1239652 11.2799995,8.13796506 11.384,8.1659652 C11.4880005,8.19396534 11.5889995,8.23396494 11.687,8.2859652 C11.7850005,8.33796546 11.8749996,8.4039648 11.957,8.4839652 C12.0390004,8.5639656 12.1059997,8.6539647 12.158,8.7539652 L12.17,8.7539652 L12.17,8.2079652 Z" id="Aug-Copy" fill="#4A4A4A" sketch:type="MSShapeGroup"></path>
    </g>
</svg>