<?xml version="1.0" encoding="UTF-8" standalone="no"?>
<svg width="16px" height="16px" viewBox="0 0 16 16" version="1.1" xmlns="http://www.w3.org/2000/svg" xmlns:xlink="http://www.w3.org/1999/xlink" xmlns:sketch="http://www.bohemiancoding.com/sketch/ns">
    <!-- Generator: Sketch 3.3.3 (12072) - http://www.bohemiancoding.com/sketch -->
    <title>Rectangle 76 Copy 35</title>
    <desc>Created with Sketch.</desc>
    <defs>
        <radialGradient cx="50%" cy="30.8898926%" fx="50%" fy="30.8898926%" r="69.1101074%" id="radialGradient-1">
            <stop stop-color="#FFFFFF" stop-opacity="0.798431839" offset="0%"></stop>
            <stop stop-color="#F1F1F1" stop-opacity="0.5" offset="100%"></stop>
        </radialGradient>
        <rect id="path-2" x="0" y="0" width="16" height="16" rx="3"></rect>
        <linearGradient x1="50%" y1="0%" x2="50%" y2="100%" id="linearGradient-3">
            <stop stop-color="#66C5F7" stop-opacity="0.5" offset="0%"></stop>
            <stop stop-color="#3182AD" stop-opacity="0.5" offset="100%"></stop>
        </linearGradient>
        <path d="M16,4 L16,3.0011077 C16,1.34900039 14.652611,0 12.9905224,0 L3.00947762,0 C1.33663106,0 0,1.34364168 0,3.0011077 L0,4 L16,4 Z" id="path-4"></path>
    </defs>
    <g id="Page-1" stroke="none" stroke-width="1" fill="none" fill-rule="evenodd" sketch:type="MSPage">
        <g id="Rectangle-76-Copy-35">
            <use fill="#DBDBDB" fill-rule="evenodd" sketch:type="MSShapeGroup" xlink:href="#path-2"></use>
            <use fill="none" xlink:href="#path-2"></use>
            <use fill="url(#radialGradient-1)" fill-rule="evenodd" xlink:href="#path-2"></use>
        </g>
        <g id="Rectangle-98-Copy-16">
            <use fill="#29DEF8" sketch:type="MSShapeGroup" xlink:href="#path-4"></use>
            <use fill="url(#linearGradient-3)" xlink:href="#path-4"></use>
        </g>
        <path d="M3.54,10.7799652 C3.54,10.9159659 3.54499995,11.0499645 3.555,11.1819652 C3.56500005,11.3139659 3.59499975,11.4329647 3.645,11.5389652 C3.69500025,11.6449657 3.77299947,11.7299649 3.879,11.7939652 C3.98500053,11.8579655 4.13199906,11.8899652 4.32,11.8899652 C4.6000014,11.8899652 4.79699943,11.809966 4.911,11.6499652 C5.02500057,11.4899644 5.082,11.2579667 5.082,10.9539652 L5.082,7.8279652 L5.49,7.8279652 L5.49,10.9659652 C5.49,11.3859673 5.39200098,11.7069641 5.196,11.9289652 C4.99999902,12.1509663 4.6920021,12.2619652 4.272,12.2619652 C4.02799878,12.2619652 3.83200074,12.2209656 3.684,12.1389652 C3.53599926,12.0569648 3.42100041,11.9469659 3.339,11.8089652 C3.25699959,11.6709645 3.20200014,11.5129661 3.174,11.3349652 C3.14599986,11.1569643 3.132,10.9719662 3.132,10.7799652 L3.54,10.7799652 Z M8.538,9.0399652 L8.898,9.0399652 L8.898,12.1479652 L8.538,12.1479652 L8.538,11.7159652 C8.48999976,11.7719655 8.4360003,11.8299649 8.376,11.8899652 C8.3159997,11.9499655 8.24700039,12.0049649 8.169,12.0549652 C8.09099961,12.1049654 8.00000052,12.146965 7.896,12.1809652 C7.79199948,12.2149654 7.67200068,12.2319652 7.536,12.2319652 C7.32799896,12.2319652 7.1540007,12.2029655 7.014,12.1449652 C6.8739993,12.0869649 6.76100043,12.0059657 6.675,11.9019652 C6.58899957,11.7979647 6.52700019,11.6769659 6.489,11.5389652 C6.45099981,11.4009645 6.432,11.249966 6.432,11.0859652 L6.432,9.0399652 L6.792,9.0399652 L6.792,11.0799652 C6.792,11.3479665 6.85399938,11.5529645 6.978,11.6949652 C7.10200062,11.8369659 7.30599858,11.9079652 7.59,11.9079652 C7.73800074,11.9079652 7.87099941,11.8789655 7.989,11.8209652 C8.10700059,11.7629649 8.2059996,11.6819657 8.286,11.5779652 C8.3660004,11.4739647 8.42799978,11.3499659 8.472,11.2059652 C8.51600022,11.0619645 8.538,10.9039661 8.538,10.7319652 L8.538,9.0399652 Z M10.128,12.1479652 L9.768,12.1479652 L9.768,9.0399652 L10.128,9.0399652 L10.128,9.4719652 C10.2720007,9.31996444 10.4209992,9.19596568 10.575,9.0999652 C10.7290008,9.00396472 10.9139989,8.9559652 11.13,8.9559652 C11.322001,8.9559652 11.4999992,8.98896487 11.664,9.0549652 C11.8280008,9.12096553 11.9659994,9.23596438 12.078,9.3999652 C12.1540004,9.51196576 12.1989999,9.62696461 12.213,9.7449652 C12.2270001,9.86296579 12.234,9.98596456 12.234,10.1139652 L12.234,12.1479652 L11.874,12.1479652 L11.874,10.1199652 C11.874,9.8399638 11.8120006,9.6299659 11.688,9.4899652 C11.5639994,9.3499645 11.3580014,9.2799652 11.07,9.2799652 C10.9579994,9.2799652 10.8560005,9.29696503 10.764,9.3309652 C10.6719995,9.36496537 10.5890004,9.40996492 10.515,9.4659652 C10.4409996,9.52196548 10.3780003,9.58596484 10.326,9.6579652 C10.2739997,9.72996556 10.2340001,9.8059648 10.206,9.8859652 C10.1699998,9.9859657 10.148,10.0819647 10.14,10.1739652 C10.132,10.2659657 10.128,10.3659647 10.128,10.4739652 L10.128,12.1479652 Z" id="Jun-Copy" fill="#4A4A4A" sketch:type="MSShapeGroup"></path>
    </g>
</svg>