<?xml version="1.0" encoding="UTF-8" standalone="no"?>
<svg width="16px" height="16px" viewBox="0 0 16 16" version="1.1" xmlns="http://www.w3.org/2000/svg" xmlns:xlink="http://www.w3.org/1999/xlink" xmlns:sketch="http://www.bohemiancoding.com/sketch/ns">
    <!-- Generator: Sketch 3.3.3 (12072) - http://www.bohemiancoding.com/sketch -->
    <title>Rectangle 76 Copy 39</title>
    <desc>Created with Sketch.</desc>
    <defs>
        <radialGradient cx="50%" cy="30.8898926%" fx="50%" fy="30.8898926%" r="69.1101074%" id="radialGradient-1">
            <stop stop-color="#FFFFFF" stop-opacity="0.798431839" offset="0%"></stop>
            <stop stop-color="#F1F1F1" stop-opacity="0.5" offset="100%"></stop>
        </radialGradient>
        <rect id="path-2" x="0" y="0" width="16" height="16" rx="3"></rect>
        <linearGradient x1="50%" y1="0%" x2="50%" y2="100%" id="linearGradient-3">
            <stop stop-color="#D981F9" stop-opacity="0.5" offset="0%"></stop>
            <stop stop-color="#64289E" stop-opacity="0.5" offset="100%"></stop>
        </linearGradient>
        <path d="M16,4 L16,3.0011077 C16,1.34900039 14.652611,0 12.9905224,0 L3.00947762,0 C1.33663106,0 0,1.34364168 0,3.0011077 L0,4 L16,4 Z" id="path-4"></path>
    </defs>
    <g id="Page-1" stroke="none" stroke-width="1" fill="none" fill-rule="evenodd" sketch:type="MSPage">
        <g id="Rectangle-76-Copy-39">
            <use fill="#DBDBDB" fill-rule="evenodd" sketch:type="MSShapeGroup" xlink:href="#path-2"></use>
            <use fill="none" xlink:href="#path-2"></use>
            <use fill="url(#radialGradient-1)" fill-rule="evenodd" xlink:href="#path-2"></use>
        </g>
        <g id="Rectangle-98-Copy-21">
            <use fill="#F374FD" sketch:type="MSShapeGroup" xlink:href="#path-4"></use>
            <use fill="url(#linearGradient-3)" xlink:href="#path-4"></use>
        </g>
        <path d="M2.818,9.4939652 C2.818,9.17796362 2.86099957,8.88196658 2.947,8.6059652 C3.03300043,8.32996382 3.15999916,8.08896623 3.328,7.8829652 C3.49600084,7.67696417 3.70399876,7.5139658 3.952,7.3939652 C4.20000124,7.2739646 4.48599838,7.2139652 4.81,7.2139652 C5.14600168,7.2139652 5.44099873,7.27296461 5.695,7.3909652 C5.94900127,7.50896579 6.16099915,7.67096417 6.331,7.8769652 C6.50100085,8.08296623 6.62899957,8.32496381 6.715,8.6029652 C6.80100043,8.88096659 6.844,9.17796362 6.844,9.4939652 C6.844,9.80596676 6.80100043,10.0989638 6.715,10.3729652 C6.62899957,10.6469666 6.50200084,10.8869642 6.334,11.0929652 C6.16599916,11.2989662 5.95600126,11.4619646 5.704,11.5819652 C5.45199874,11.7019658 5.16000166,11.7619652 4.828,11.7619652 C4.49599834,11.7619652 4.20400126,11.7019658 3.952,11.5819652 C3.69999874,11.4619646 3.49000084,11.2989662 3.322,11.0929652 C3.15399916,10.8869642 3.02800042,10.6469666 2.944,10.3729652 C2.85999958,10.0989638 2.818,9.80596676 2.818,9.4939652 L2.818,9.4939652 Z M4.834,11.4139652 C5.1140014,11.4139652 5.35499899,11.3609657 5.557,11.2549652 C5.75900101,11.1489647 5.92499935,11.0079661 6.055,10.8319652 C6.18500065,10.6559643 6.28099969,10.4519664 6.343,10.2199652 C6.40500031,9.98796404 6.436,9.74596646 6.436,9.4939652 C6.436,9.1939637 6.39900037,8.92496639 6.325,8.6869652 C6.25099963,8.44896401 6.1440007,8.24596604 6.004,8.0779652 C5.8639993,7.90996436 5.694001,7.78196564 5.494,7.6939652 C5.293999,7.60596476 5.07000124,7.5619652 4.822,7.5619652 C4.54599862,7.5619652 4.30700101,7.61596466 4.105,7.7239652 C3.90299899,7.83196574 3.73700065,7.97496431 3.607,8.1529652 C3.47699935,8.33096609 3.38100031,8.53596404 3.319,8.7679652 C3.25699969,8.99996636 3.226,9.24196394 3.226,9.4939652 C3.226,9.74996648 3.25699969,9.99396404 3.319,10.2259652 C3.38100031,10.4579664 3.47699935,10.6619643 3.607,10.8379652 C3.73700065,11.0139661 3.90299899,11.1539647 4.105,11.2579652 C4.30700101,11.3619657 4.54999858,11.4139652 4.834,11.4139652 L4.834,11.4139652 Z M9.802,9.5179652 C9.73799968,9.28596404 9.62800078,9.10496585 9.472,8.9749652 C9.31599922,8.84496455 9.1180012,8.7799652 8.878,8.7799652 C8.69399908,8.7799652 8.53600066,8.81796482 8.404,8.8939652 C8.27199934,8.96996558 8.16400042,9.07096457 8.08,9.1969652 C7.99599958,9.32296583 7.9340002,9.46496441 7.894,9.6229652 C7.8539998,9.78096599 7.834,9.9399644 7.834,10.0999652 C7.834,10.263966 7.85299981,10.4239644 7.891,10.5799652 C7.92900019,10.735966 7.98999958,10.8759646 8.074,10.9999652 C8.15800042,11.1239658 8.26599934,11.2229648 8.398,11.2969652 C8.53000066,11.3709656 8.68999906,11.4079652 8.878,11.4079652 C9.14600134,11.4079652 9.36099919,11.3339659 9.523,11.1859652 C9.68500081,11.0379645 9.78799978,10.8339665 9.832,10.5739652 L10.216,10.5739652 C10.1839998,10.7459661 10.1330003,10.9029645 10.063,11.0449652 C9.99299965,11.1869659 9.90300055,11.3089647 9.793,11.4109652 C9.68299945,11.5129657 9.55200076,11.5919649 9.4,11.6479652 C9.24799924,11.7039655 9.07400098,11.7319652 8.878,11.7319652 C8.62999876,11.7319652 8.4160009,11.6899656 8.236,11.6059652 C8.0559991,11.5219648 7.90800058,11.4069659 7.792,11.2609652 C7.67599942,11.1149645 7.59000028,10.9419662 7.534,10.7419652 C7.47799972,10.5419642 7.45,10.3279663 7.45,10.0999652 C7.45,9.88396412 7.48099969,9.67696619 7.543,9.4789652 C7.60500031,9.28096421 7.6959994,9.10596596 7.816,8.9539652 C7.9360006,8.80196444 8.08499911,8.68096565 8.263,8.5909652 C8.44100089,8.50096475 8.64599884,8.4559652 8.878,8.4559652 C9.2380018,8.4559652 9.52899889,8.54196434 9.751,8.7139652 C9.97300111,8.88596606 10.1119997,9.15396338 10.168,9.5179652 L9.802,9.5179652 Z M12.028,11.6599652 C11.9839998,11.6679652 11.9260004,11.6819651 11.854,11.7019652 C11.7819996,11.7219653 11.7020004,11.7319652 11.614,11.7319652 C11.4339991,11.7319652 11.2970005,11.6869656 11.203,11.5969652 C11.1089995,11.5069647 11.062,11.3459664 11.062,11.1139652 L11.062,8.8399652 L10.624,8.8399652 L10.624,8.5399652 L11.062,8.5399652 L11.062,7.6759652 L11.422,7.6759652 L11.422,8.5399652 L12.004,8.5399652 L12.004,8.8399652 L11.422,8.8399652 L11.422,10.9699652 C11.422,11.0459656 11.424,11.1119649 11.428,11.1679652 C11.432,11.2239655 11.4439999,11.269965 11.464,11.3059652 C11.4840001,11.3419654 11.5149998,11.3679651 11.557,11.3839652 C11.5990002,11.3999653 11.6579996,11.4079652 11.734,11.4079652 C11.7820002,11.4079652 11.8309998,11.4039652 11.881,11.3959652 C11.9310003,11.3879652 11.9799998,11.3779653 12.028,11.3659652 L12.028,11.6599652 Z" id="Oct-Copy" fill="#4A4A4A" sketch:type="MSShapeGroup"></path>
    </g>
</svg>