<?xml version="1.0" encoding="UTF-8" standalone="no"?>
<svg width="16px" height="16px" viewBox="0 0 16 16" version="1.1" xmlns="http://www.w3.org/2000/svg" xmlns:xlink="http://www.w3.org/1999/xlink" xmlns:sketch="http://www.bohemiancoding.com/sketch/ns">
    <!-- Generator: Sketch 3.3.3 (12072) - http://www.bohemiancoding.com/sketch -->
    <title>Rectangle 76 Copy 31</title>
    <desc>Created with Sketch.</desc>
    <defs>
        <radialGradient cx="50%" cy="30.8898926%" fx="50%" fy="30.8898926%" r="69.1101074%" id="radialGradient-1">
            <stop stop-color="#FFFFFF" stop-opacity="0.798431839" offset="0%"></stop>
            <stop stop-color="#F1F1F1" stop-opacity="0.5" offset="100%"></stop>
        </radialGradient>
        <rect id="path-2" x="0" y="0" width="16" height="16" rx="3"></rect>
        <linearGradient x1="50%" y1="0%" x2="50%" y2="100%" id="linearGradient-3">
            <stop stop-color="#F98F4D" stop-opacity="0.5" offset="0%"></stop>
            <stop stop-color="#C25B1B" stop-opacity="0.5" offset="100%"></stop>
        </linearGradient>
        <path d="M16,4 L16,3.0011077 C16,1.34900039 14.652611,0 12.9905224,0 L3.00947762,0 C1.33663106,0 0,1.34364168 0,3.0011077 L0,4 L16,4 Z" id="path-4"></path>
    </defs>
    <g id="Page-1" stroke="none" stroke-width="1" fill="none" fill-rule="evenodd" sketch:type="MSPage">
        <g id="Rectangle-76-Copy-31">
            <use fill="#DBDBDB" fill-rule="evenodd" sketch:type="MSShapeGroup" xlink:href="#path-2"></use>
            <use fill="none" xlink:href="#path-2"></use>
            <use fill="url(#radialGradient-1)" fill-rule="evenodd" xlink:href="#path-2"></use>
        </g>
        <g id="Rectangle-98-Copy-13">
            <use fill="#EB7F3C" sketch:type="MSShapeGroup" xlink:href="#path-4"></use>
            <use fill="url(#linearGradient-3)" xlink:href="#path-4"></use>
        </g>
        <path d="M3.444,12.6479652 L3.444,8.3279652 L6.228,8.3279652 L6.228,8.6759652 L3.852,8.6759652 L3.852,10.2359652 L6.012,10.2359652 L6.012,10.5839652 L3.852,10.5839652 L3.852,12.6479652 L3.444,12.6479652 Z M9.018,10.8779652 C9.018,10.7259644 8.99700021,10.5829659 8.955,10.4489652 C8.91299979,10.3149645 8.85100041,10.1989657 8.769,10.1009652 C8.68699959,10.0029647 8.58400062,9.92496549 8.46,9.8669652 C8.33599938,9.80896491 8.1940008,9.7799652 8.034,9.7799652 C7.8739992,9.7799652 7.73300061,9.8099649 7.611,9.8699652 C7.48899939,9.9299655 7.38500043,10.0099647 7.299,10.1099652 C7.21299957,10.2099657 7.14400026,10.3259645 7.092,10.4579652 C7.03999974,10.5899659 7.00600008,10.7299645 6.99,10.8779652 L9.018,10.8779652 Z M6.99,11.1779652 C6.99,11.345966 7.01199978,11.5049644 7.056,11.6549652 C7.10000022,11.8049659 7.16499957,11.9349646 7.251,12.0449652 C7.33700043,12.1549657 7.44599934,12.2429649 7.578,12.3089652 C7.71000066,12.3749655 7.86199914,12.4079652 8.034,12.4079652 C8.27000118,12.4079652 8.47199916,12.3459658 8.64,12.2219652 C8.80800084,12.0979646 8.91999972,11.9219663 8.976,11.6939652 L9.378,11.6939652 C9.33399978,11.8419659 9.27600036,11.9789646 9.204,12.1049652 C9.13199964,12.2309658 9.04200054,12.3409647 8.934,12.4349652 C8.82599946,12.5289657 8.69800074,12.6019649 8.55,12.6539652 C8.40199926,12.7059655 8.23000098,12.7319652 8.034,12.7319652 C7.78599876,12.7319652 7.5720009,12.6899656 7.392,12.6059652 C7.2119991,12.5219648 7.06400058,12.4069659 6.948,12.2609652 C6.83199942,12.1149645 6.74600028,11.9429662 6.69,11.7449652 C6.63399972,11.5469642 6.606,11.3339663 6.606,11.1059652 C6.606,10.8779641 6.63899967,10.6639662 6.705,10.4639652 C6.77100033,10.2639642 6.86499939,10.0889659 6.987,9.9389652 C7.10900061,9.78896445 7.25799912,9.67096563 7.434,9.5849652 C7.61000088,9.49896477 7.80999888,9.4559652 8.034,9.4559652 C8.46200214,9.4559652 8.79799878,9.60296373 9.042,9.8969652 C9.28600122,10.1909667 9.40600002,10.6179624 9.402,11.1779652 L6.99,11.1779652 Z M10.506,11.0819652 C10.506,11.2699661 10.5289998,11.4449644 10.575,11.6069652 C10.6210002,11.768966 10.6879996,11.9089646 10.776,12.0269652 C10.8640004,12.1449658 10.9739993,12.2379649 11.106,12.3059652 C11.2380007,12.3739655 11.3879992,12.4079652 11.556,12.4079652 C11.7080008,12.4079652 11.8479994,12.3809655 11.976,12.3269652 C12.1040006,12.2729649 12.2159995,12.1939657 12.312,12.0899652 C12.4080005,11.9859647 12.4829997,11.8589659 12.537,11.7089652 C12.5910003,11.5589644 12.618,11.3859662 12.618,11.1899652 C12.626,10.9939642 12.6100002,10.810966 12.57,10.6409652 C12.5299998,10.4709643 12.4660004,10.3219658 12.378,10.1939652 C12.2899996,10.0659646 12.1770007,9.96496557 12.039,9.8909652 C11.9009993,9.81696483 11.7400009,9.7799652 11.556,9.7799652 C11.3919992,9.7799652 11.2450007,9.81496485 11.115,9.8849652 C10.9849993,9.95496555 10.8750005,10.0489646 10.785,10.1669652 C10.6949995,10.2849658 10.6260002,10.4229644 10.578,10.5809652 C10.5299998,10.738966 10.506,10.9059643 10.506,11.0819652 L10.506,11.0819652 Z M10.506,12.6479652 L10.146,12.6479652 L10.146,8.3279652 L10.506,8.3279652 L10.506,10.0379652 C10.6220006,9.84596424 10.780999,9.70096569 10.983,9.6029652 C11.185001,9.50496471 11.3959989,9.4559652 11.616,9.4559652 C11.8520012,9.4559652 12.0569991,9.50096475 12.231,9.5909652 C12.4050009,9.68096565 12.5489994,9.80096445 12.663,9.9509652 C12.7770006,10.1009659 12.8619997,10.2759642 12.918,10.4759652 C12.9740003,10.6759662 13.002,10.8839641 13.002,11.0999652 C13.002,11.3279663 12.9760003,11.5419642 12.924,11.7419652 C12.8719997,11.9419662 12.7890006,12.1149645 12.675,12.2609652 C12.5609994,12.4069659 12.4160009,12.5219648 12.24,12.6059652 C12.0639991,12.6899656 11.8500013,12.7319652 11.598,12.7319652 C11.4979995,12.7319652 11.3960005,12.7179653 11.292,12.6899652 C11.1879995,12.6619651 11.0870005,12.6219655 10.989,12.5699652 C10.8909995,12.5179649 10.8010004,12.4529656 10.719,12.3749652 C10.6369996,12.2969648 10.5700003,12.2059657 10.518,12.1019652 L10.506,12.1019652 L10.506,12.6479652 Z" id="Feb-Copy" fill="#4A4A4A" sketch:type="MSShapeGroup"></path>
    </g>
</svg>