<?xml version="1.0" encoding="UTF-8" standalone="no"?>
<svg width="16px" height="16px" viewBox="0 0 16 16" version="1.1" xmlns="http://www.w3.org/2000/svg" xmlns:xlink="http://www.w3.org/1999/xlink">
    <!-- Generator: Sketch 3.7 (28169) - http://www.bohemiancoding.com/sketch -->
    <title>task pro_5/8d</title>
    <desc>Created with Sketch.</desc>
    <defs>
        <linearGradient x1="50%" y1="0%" x2="50%" y2="100%" id="linearGradient-1">
            <stop stop-color="#00D156" offset="0%"></stop>
            <stop stop-color="#00C050" offset="100%"></stop>
        </linearGradient>
    </defs>
    <g id="最终稿2" stroke="none" stroke-width="1" fill="none" fill-rule="evenodd">
        <g id="task-progress-" transform="translate(-107.000000, 0.000000)" fill="url(#linearGradient-1)">
            <path d="M115,16 C119.418278,16 123,12.418278 123,8 C123,3.581722 119.418278,0 115,0 C110.581722,0 107,3.581722 107,8 C107,12.418278 110.581722,16 115,16 L115,16 L115,16 L115,16 L115,16 L115,16 L115,16 L115,16 L115,16 Z M115,15 C118.865993,15 122,11.8659932 122,8 C122,4.13400675 118.865993,1 115,1 C111.134007,1 108,4.13400675 108,8 C108,11.8659932 111.134007,15 115,15 L115,15 L115,15 L115,15 L115,15 L115,15 L115,15 L115,15 L115,15 Z M115,1 C118.865993,1 122,4.13400675 122,8 C122,11.8659932 118.865993,15 115,15 C113.067003,15 111.317003,14.2164983 110.050253,12.9497475 L115,8 L115,1 L115,1 Z" id="task-pro_5/8d"></path>
        </g>
    </g>
</svg>