<?xml version="1.0" encoding="UTF-8" standalone="no"?>
<svg width="16px" height="16px" viewBox="0 0 16 16" version="1.1" xmlns="http://www.w3.org/2000/svg" xmlns:xlink="http://www.w3.org/1999/xlink" xmlns:sketch="http://www.bohemiancoding.com/sketch/ns">
    <!-- Generator: Sketch 3.3.3 (12072) - http://www.bohemiancoding.com/sketch -->
    <title>Rectangle 76 Copy 5</title>
    <desc>Created with Sketch.</desc>
    <defs>
        <radialGradient cx="50%" cy="30.8898926%" fx="50%" fy="30.8898926%" r="69.1101074%" id="radialGradient-1">
            <stop stop-color="#FFFFFF" stop-opacity="0.798431839" offset="0%"></stop>
            <stop stop-color="#F1F1F1" stop-opacity="0.5" offset="100%"></stop>
        </radialGradient>
        <rect id="path-2" x="0" y="0" width="16" height="16" rx="3"></rect>
    </defs>
    <g id="Page-1" stroke="none" stroke-width="1" fill="none" fill-rule="evenodd" sketch:type="MSPage">
        <g id="Rectangle-76-Copy-5">
            <use fill="#DBDBDB" fill-rule="evenodd" sketch:type="MSShapeGroup" xlink:href="#path-2"></use>
            <use fill="none" xlink:href="#path-2"></use>
            <use fill="url(#radialGradient-1)" fill-rule="evenodd" xlink:href="#path-2"></use>
        </g>
        <path d="M2.468,10 L2.468,5.68 L3.092,5.68 L4.508,9.49 L4.52,9.49 L5.912,5.68 L6.53,5.68 L6.53,10 L6.122,10 L6.122,6.148 L6.11,6.148 L4.694,10 L4.31,10 L2.888,6.148 L2.876,6.148 L2.876,10 L2.468,10 Z M8.666,10.084 C8.465999,10.08 8.27900087,10.0440003 8.105,9.976 C7.93099913,9.90799966 7.77900065,9.80600068 7.649,9.67 C7.51899935,9.53399932 7.41600038,9.36400102 7.34,9.16 C7.26399962,8.95599898 7.226,8.71800136 7.226,8.446 C7.226,8.21799886 7.2559997,8.00500099 7.316,7.807 C7.3760003,7.60899901 7.4659994,7.43600074 7.586,7.288 C7.7060006,7.13999926 7.8559991,7.02300043 8.036,6.937 C8.2160009,6.85099957 8.4259988,6.808 8.666,6.808 C8.91000122,6.808 9.1219991,6.85099957 9.302,6.937 C9.4820009,7.02300043 9.6319994,7.13899927 9.752,7.285 C9.8720006,7.43100073 9.96099971,7.603999 10.019,7.804 C10.0770003,8.004001 10.106,8.21799886 10.106,8.446 C10.106,8.69400124 10.0720003,8.917999 10.004,9.118 C9.93599966,9.318001 9.83900063,9.48999928 9.713,9.634 C9.58699937,9.77800072 9.43500089,9.88899961 9.257,9.967 C9.07899911,10.0450004 8.88200108,10.084 8.666,10.084 L8.666,10.084 Z M9.722,8.446 C9.722,8.26199908 9.7020002,8.0900008 9.662,7.93 C9.6219998,7.7699992 9.56000042,7.63100059 9.476,7.513 C9.39199958,7.39499941 9.28400066,7.30200034 9.152,7.234 C9.01999934,7.16599966 8.85800096,7.132 8.666,7.132 C8.47799906,7.132 8.31700067,7.16899963 8.183,7.243 C8.04899933,7.31700037 7.94000042,7.41499939 7.856,7.537 C7.77199958,7.65900061 7.7100002,7.79899921 7.67,7.957 C7.6299998,8.11500079 7.61,8.27799916 7.61,8.446 C7.61,8.63800096 7.63299977,8.81499919 7.679,8.977 C7.72500023,9.13900081 7.79199956,9.27799942 7.88,9.394 C7.96800044,9.51000058 8.07799934,9.59999968 8.21,9.664 C8.34200066,9.72800032 8.49399914,9.76 8.666,9.76 C8.85400094,9.76 9.01499933,9.72300037 9.149,9.649 C9.28300067,9.57499963 9.39199958,9.47600062 9.476,9.352 C9.56000042,9.22799938 9.6219998,9.08800078 9.662,8.932 C9.7020002,8.77599922 9.722,8.61400084 9.722,8.446 L9.722,8.446 Z M11.126,10 L10.766,10 L10.766,6.892 L11.126,6.892 L11.126,7.324 C11.2700007,7.17199924 11.4189992,7.04800048 11.573,6.952 C11.7270008,6.85599952 11.9119989,6.808 12.128,6.808 C12.320001,6.808 12.4979992,6.84099967 12.662,6.907 C12.8260008,6.97300033 12.9639994,7.08799918 13.076,7.252 C13.1520004,7.36400056 13.1969999,7.47899941 13.211,7.597 C13.2250001,7.71500059 13.232,7.83799936 13.232,7.966 L13.232,10 L12.872,10 L12.872,7.972 C12.872,7.6919986 12.8100006,7.4820007 12.686,7.342 C12.5619994,7.2019993 12.3560014,7.132 12.068,7.132 C11.9559994,7.132 11.8540005,7.14899983 11.762,7.183 C11.6699995,7.21700017 11.5870004,7.26199972 11.513,7.318 C11.4389996,7.37400028 11.3760003,7.43799964 11.324,7.51 C11.2719997,7.58200036 11.2320001,7.6579996 11.204,7.738 C11.1679998,7.8380005 11.146,7.93399954 11.138,8.026 C11.13,8.11800046 11.126,8.21799946 11.126,8.326 L11.126,10 Z" id="Mon" fill="#4A4A4A" sketch:type="MSShapeGroup"></path>
    </g>
</svg>