<?xml version="1.0" encoding="UTF-8" standalone="no"?>
<svg width="16px" height="16px" viewBox="0 0 16 16" version="1.1" xmlns="http://www.w3.org/2000/svg" xmlns:xlink="http://www.w3.org/1999/xlink" xmlns:sketch="http://www.bohemiancoding.com/sketch/ns">
    <!-- Generator: Sketch 3.3.3 (12072) - http://www.bohemiancoding.com/sketch -->
    <title>Rectangle 76 Copy 8</title>
    <desc>Created with Sketch.</desc>
    <defs>
        <radialGradient cx="50%" cy="30.8898926%" fx="50%" fy="30.8898926%" r="69.1101074%" id="radialGradient-1">
            <stop stop-color="#FFFFFF" stop-opacity="0.798431839" offset="0%"></stop>
            <stop stop-color="#F1F1F1" stop-opacity="0.5" offset="100%"></stop>
        </radialGradient>
        <rect id="path-2" x="0" y="0.0739825989" width="16" height="16" rx="3"></rect>
    </defs>
    <g id="Page-1" stroke="none" stroke-width="1" fill="none" fill-rule="evenodd" sketch:type="MSPage">
        <g id="Rectangle-76-Copy-8">
            <use fill="#DBDBDB" fill-rule="evenodd" sketch:type="MSShapeGroup" xlink:href="#path-2"></use>
            <use fill="none" xlink:href="#path-2"></use>
            <use fill="url(#radialGradient-1)" fill-rule="evenodd" xlink:href="#path-2"></use>
        </g>
        <path d="M3.096,5.7539826 L6.24,5.7539826 L6.24,6.1019826 L4.872,6.1019826 L4.872,10.0739826 L4.464,10.0739826 L4.464,6.1019826 L3.096,6.1019826 L3.096,5.7539826 Z M8.322,6.9659826 L8.682,6.9659826 L8.682,10.0739826 L8.322,10.0739826 L8.322,9.6419826 C8.27399976,9.69798288 8.2200003,9.7559823 8.16,9.8159826 C8.0999997,9.8759829 8.03100039,9.93098235 7.953,9.9809826 C7.87499961,10.0309828 7.78400052,10.0729824 7.68,10.1069826 C7.57599948,10.1409828 7.45600068,10.1579826 7.32,10.1579826 C7.11199896,10.1579826 6.9380007,10.1289829 6.798,10.0709826 C6.6579993,10.0129823 6.54500043,9.93198312 6.459,9.8279826 C6.37299957,9.72398208 6.31100019,9.60298329 6.273,9.4649826 C6.23499981,9.32698191 6.216,9.17598342 6.216,9.0119826 L6.216,6.9659826 L6.576,6.9659826 L6.576,9.0059826 C6.576,9.27398394 6.63799938,9.47898189 6.762,9.6209826 C6.88600062,9.76298331 7.08999858,9.8339826 7.374,9.8339826 C7.52200074,9.8339826 7.65499941,9.80498289 7.773,9.7469826 C7.89100059,9.68898231 7.9899996,9.60798312 8.07,9.5039826 C8.1500004,9.39998208 8.21199978,9.27598332 8.256,9.1319826 C8.30000022,8.98798188 8.322,8.82998346 8.322,8.6579826 L8.322,6.9659826 Z M11.802,8.3039826 C11.802,8.15198184 11.7810002,8.00898327 11.739,7.8749826 C11.6969998,7.74098193 11.6350004,7.62498309 11.553,7.5269826 C11.4709996,7.42898211 11.3680006,7.35098289 11.244,7.2929826 C11.1199994,7.23498231 10.9780008,7.2059826 10.818,7.2059826 C10.6579992,7.2059826 10.5170006,7.2359823 10.395,7.2959826 C10.2729994,7.3559829 10.1690004,7.4359821 10.083,7.5359826 C9.99699957,7.6359831 9.92800026,7.75198194 9.876,7.8839826 C9.82399974,8.01598326 9.79000008,8.15598186 9.774,8.3039826 L11.802,8.3039826 Z M9.774,8.6039826 C9.774,8.77198344 9.79599978,8.93098185 9.84,9.0809826 C9.88400022,9.23098335 9.94899957,9.36098205 10.035,9.4709826 C10.1210004,9.58098315 10.2299993,9.66898227 10.362,9.7349826 C10.4940007,9.80098293 10.6459991,9.8339826 10.818,9.8339826 C11.0540012,9.8339826 11.2559992,9.77198322 11.424,9.6479826 C11.5920008,9.52398198 11.7039997,9.34798374 11.76,9.1199826 L12.162,9.1199826 C12.1179998,9.26798334 12.0600004,9.40498197 11.988,9.5309826 C11.9159996,9.65698323 11.8260005,9.76698213 11.718,9.8609826 C11.6099995,9.95498307 11.4820007,10.0279823 11.334,10.0799826 C11.1859993,10.1319829 11.014001,10.1579826 10.818,10.1579826 C10.5699988,10.1579826 10.3560009,10.115983 10.176,10.0319826 C9.9959991,9.94798218 9.84800058,9.83298333 9.732,9.6869826 C9.61599942,9.54098187 9.53000028,9.36898359 9.474,9.1709826 C9.41799972,8.97298161 9.39,8.75998374 9.39,8.5319826 C9.39,8.30398146 9.42299967,8.0899836 9.489,7.8899826 C9.55500033,7.6899816 9.64899939,7.51498335 9.771,7.3649826 C9.89300061,7.21498185 10.0419991,7.09698303 10.218,7.0109826 C10.3940009,6.92498217 10.5939989,6.8819826 10.818,6.8819826 C11.2460021,6.8819826 11.5819988,7.02898113 11.826,7.3229826 C12.0700012,7.61698407 12.19,8.0439798 12.186,8.6039826 L9.774,8.6039826 Z" id="Tue" fill="#4A4A4A" sketch:type="MSShapeGroup"></path>
    </g>
</svg>