<?xml version="1.0" encoding="UTF-8" standalone="no"?>
<svg width="16px" height="16px" viewBox="0 0 16 16" version="1.1" xmlns="http://www.w3.org/2000/svg" xmlns:xlink="http://www.w3.org/1999/xlink" xmlns:sketch="http://www.bohemiancoding.com/sketch/ns">
    <!-- Generator: Sketch 3.3.3 (12072) - http://www.bohemiancoding.com/sketch -->
    <title>Rectangle 76 Copy 11</title>
    <desc>Created with Sketch.</desc>
    <defs>
        <radialGradient cx="50%" cy="30.8898926%" fx="50%" fy="30.8898926%" r="69.1101074%" id="radialGradient-1">
            <stop stop-color="#FFFFFF" stop-opacity="0.798431839" offset="0%"></stop>
            <stop stop-color="#F1F1F1" stop-opacity="0.5" offset="100%"></stop>
        </radialGradient>
        <rect id="path-2" x="0" y="0" width="16" height="16" rx="3"></rect>
    </defs>
    <g id="Page-1" stroke="none" stroke-width="1" fill="none" fill-rule="evenodd" sketch:type="MSPage">
        <g id="Rectangle-76-Copy-11">
            <use fill="#DBDBDB" fill-rule="evenodd" sketch:type="MSShapeGroup" xlink:href="#path-2"></use>
            <use fill="none" xlink:href="#path-2"></use>
            <use fill="url(#radialGradient-1)" fill-rule="evenodd" xlink:href="#path-2"></use>
        </g>
        <path d="M5.876,9.424 L5.888,9.424 L6.83,5.68 L7.25,5.68 L6.116,10 L5.666,10 L4.664,6.184 L4.652,6.184 L3.65,10 L3.2,10 L2.084,5.68 L2.492,5.68 L3.422,9.424 L3.434,9.424 L4.436,5.68 L4.892,5.68 L5.876,9.424 Z M9.908,8.23 C9.908,8.07799924 9.88700021,7.93500067 9.845,7.801 C9.80299979,7.66699933 9.74100041,7.55100049 9.659,7.453 C9.57699959,7.35499951 9.47400062,7.27700029 9.35,7.219 C9.22599938,7.16099971 9.0840008,7.132 8.924,7.132 C8.7639992,7.132 8.62300061,7.1619997 8.501,7.222 C8.37899939,7.2820003 8.27500043,7.3619995 8.189,7.462 C8.10299957,7.5620005 8.03400026,7.67799934 7.982,7.81 C7.92999974,7.94200066 7.89600008,8.08199926 7.88,8.23 L9.908,8.23 Z M7.88,8.53 C7.88,8.69800084 7.90199978,8.85699925 7.946,9.007 C7.99000022,9.15700075 8.05499957,9.28699945 8.141,9.397 C8.22700043,9.50700055 8.33599934,9.59499967 8.468,9.661 C8.60000066,9.72700033 8.75199914,9.76 8.924,9.76 C9.16000118,9.76 9.36199916,9.69800062 9.53,9.574 C9.69800084,9.44999938 9.80999972,9.27400114 9.866,9.046 L10.268,9.046 C10.2239998,9.19400074 10.1660004,9.33099937 10.094,9.457 C10.0219996,9.58300063 9.93200054,9.69299953 9.824,9.787 C9.71599946,9.88100047 9.58800074,9.95399974 9.44,10.006 C9.29199926,10.0580003 9.12000098,10.084 8.924,10.084 C8.67599876,10.084 8.4620009,10.0420004 8.282,9.958 C8.1019991,9.87399958 7.95400058,9.75900073 7.838,9.613 C7.72199942,9.46699927 7.63600028,9.29500099 7.58,9.097 C7.52399972,8.89899901 7.496,8.68600114 7.496,8.458 C7.496,8.22999886 7.52899967,8.016001 7.595,7.816 C7.66100033,7.615999 7.75499939,7.44100075 7.877,7.291 C7.99900061,7.14099925 8.14799912,7.02300043 8.324,6.937 C8.50000088,6.85099957 8.69999888,6.808 8.924,6.808 C9.35200214,6.808 9.68799878,6.95499853 9.932,7.249 C10.1760012,7.54300147 10.296,7.9699972 10.292,8.53 L7.88,8.53 Z M13.394,8.434 C13.394,8.25799912 13.3700002,8.09100079 13.322,7.933 C13.2739998,7.77499921 13.2050005,7.63700059 13.115,7.519 C13.0249995,7.40099941 12.9150007,7.30700035 12.785,7.237 C12.6549994,7.16699965 12.5080008,7.132 12.344,7.132 C12.1559991,7.132 11.9940007,7.16899963 11.858,7.243 C11.7219993,7.31700037 11.6100004,7.41799936 11.522,7.546 C11.4339996,7.67400064 11.3700002,7.82299915 11.33,7.993 C11.2899998,8.16300085 11.274,8.34599902 11.282,8.542 C11.282,8.73800098 11.3089997,8.91099925 11.363,9.061 C11.4170003,9.21100075 11.4919995,9.33799948 11.588,9.442 C11.6840005,9.54600052 11.7959994,9.62499973 11.924,9.679 C12.0520006,9.73300027 12.1919992,9.76 12.344,9.76 C12.5120008,9.76 12.6619993,9.72600034 12.794,9.658 C12.9260007,9.58999966 13.0359996,9.49700059 13.124,9.379 C13.2120004,9.26099941 13.2789998,9.12100081 13.325,8.959 C13.3710002,8.79699919 13.394,8.62200094 13.394,8.434 L13.394,8.434 Z M13.394,5.68 L13.754,5.68 L13.754,10 L13.394,10 L13.394,9.454 L13.382,9.454 C13.3299997,9.55800052 13.2630004,9.64899961 13.181,9.727 C13.0989996,9.80500039 13.0090005,9.86999974 12.911,9.922 C12.8129995,9.97400026 12.7120005,10.0139999 12.608,10.042 C12.5039995,10.0700001 12.4020005,10.084 12.302,10.084 C12.0499987,10.084 11.8360009,10.0420004 11.66,9.958 C11.4839991,9.87399958 11.3390006,9.75900073 11.225,9.613 C11.1109994,9.46699927 11.0280003,9.294001 10.976,9.094 C10.9239997,8.893999 10.898,8.68000114 10.898,8.452 C10.898,8.23599892 10.9259997,8.028001 10.982,7.828 C11.0380003,7.627999 11.1229994,7.45300075 11.237,7.303 C11.3510006,7.15299925 11.4949991,7.03300045 11.669,6.943 C11.8430009,6.85299955 12.0479988,6.808 12.284,6.808 C12.5040011,6.808 12.714999,6.85699951 12.917,6.955 C13.119001,7.05300049 13.2779994,7.19799904 13.394,7.39 L13.394,5.68 Z" id="Wed" fill="#4A4A4A" sketch:type="MSShapeGroup"></path>
    </g>
</svg>