<?xml version="1.0" encoding="UTF-8" standalone="no"?>
<svg width="16px" height="16px" viewBox="0 0 16 16" version="1.1" xmlns="http://www.w3.org/2000/svg" xmlns:xlink="http://www.w3.org/1999/xlink" xmlns:sketch="http://www.bohemiancoding.com/sketch/ns">
    <!-- Generator: Sketch 3.3.3 (12072) - http://www.bohemiancoding.com/sketch -->
    <title>Rectangle 76 Copy 2</title>
    <desc>Created with Sketch.</desc>
    <defs>
        <radialGradient cx="50%" cy="30.8898926%" fx="50%" fy="30.8898926%" r="69.1101074%" id="radialGradient-1">
            <stop stop-color="#FFFFFF" stop-opacity="0.798431839" offset="0%"></stop>
            <stop stop-color="#F1F1F1" stop-opacity="0.5" offset="100%"></stop>
        </radialGradient>
        <rect id="path-2" x="0" y="0" width="16" height="16" rx="3"></rect>
    </defs>
    <g id="Page-1" stroke="none" stroke-width="1" fill="none" fill-rule="evenodd" sketch:type="MSPage">
        <g id="Rectangle-76-Copy-2">
            <use fill="#DBDBDB" fill-rule="evenodd" sketch:type="MSShapeGroup" xlink:href="#path-2"></use>
            <use fill="none" xlink:href="#path-2"></use>
            <use fill="url(#radialGradient-1)" fill-rule="evenodd" xlink:href="#path-2"></use>
        </g>
        <path d="M3.654,8.71 C3.67000008,8.90200096 3.71299965,9.06499933 3.783,9.199 C3.85300035,9.33300067 3.94299945,9.44199958 4.053,9.526 C4.16300055,9.61000042 4.28999928,9.67099981 4.434,9.709 C4.57800072,9.74700019 4.73199918,9.766 4.896,9.766 C5.08800096,9.766 5.2539993,9.74200024 5.394,9.694 C5.5340007,9.64599976 5.64799956,9.58100041 5.736,9.499 C5.82400044,9.41699959 5.88899979,9.32200054 5.931,9.214 C5.97300021,9.10599946 5.994,8.9920006 5.994,8.872 C5.994,8.70399916 5.95600038,8.56800052 5.88,8.464 C5.80399962,8.35999948 5.70500061,8.27500033 5.583,8.209 C5.46099939,8.14299967 5.32100079,8.0900002 5.163,8.05 C5.00499921,8.0099998 4.84300083,7.97100019 4.677,7.933 C4.51099917,7.89499981 4.34900079,7.85000026 4.191,7.798 C4.03299921,7.74599974 3.89300061,7.67600044 3.771,7.588 C3.64899939,7.49999956 3.55000038,7.38700069 3.474,7.249 C3.39799962,7.11099931 3.36,6.93600106 3.36,6.724 C3.36,6.57599926 3.39099969,6.4320007 3.453,6.292 C3.51500031,6.1519993 3.60699939,6.02800054 3.729,5.92 C3.85100061,5.81199946 4.00399908,5.72600032 4.188,5.662 C4.37200092,5.59799968 4.5839988,5.566 4.824,5.566 C5.06800122,5.566 5.28099909,5.59999966 5.463,5.668 C5.64500091,5.73600034 5.7959994,5.82899941 5.916,5.947 C6.0360006,6.06500059 6.1259997,6.20199922 6.186,6.358 C6.2460003,6.51400078 6.276,6.67999912 6.276,6.856 L5.886,6.856 C5.886,6.69199918 5.85700029,6.5500006 5.799,6.43 C5.74099971,6.3099994 5.6620005,6.21200038 5.562,6.136 C5.4619995,6.05999962 5.34800064,6.00400018 5.22,5.968 C5.09199936,5.93199982 4.96000068,5.914 4.824,5.914 C4.61599896,5.914 4.44100071,5.94299971 4.299,6.001 C4.15699929,6.05900029 4.04400042,6.13399954 3.96,6.226 C3.87599958,6.31800046 3.81800016,6.41999944 3.786,6.532 C3.75399984,6.64400056 3.7479999,6.75599944 3.768,6.868 C3.79200012,7.0080007 3.84799956,7.11999958 3.936,7.204 C4.02400044,7.28800042 4.13199936,7.35699973 4.26,7.411 C4.38800064,7.46500027 4.52899923,7.50899983 4.683,7.543 C4.83700077,7.57700017 4.9939992,7.61299981 5.154,7.651 C5.3140008,7.68900019 5.46899925,7.73399974 5.619,7.786 C5.76900075,7.83800026 5.90199942,7.90799956 6.018,7.996 C6.13400058,8.08400044 6.22699965,8.19699931 6.297,8.335 C6.36700035,8.47300069 6.402,8.64599896 6.402,8.854 C6.402,9.254002 6.26400138,9.5639989 5.988,9.784 C5.71199862,10.0040011 5.3240025,10.114 4.824,10.114 C4.59999888,10.114 4.39200096,10.0850003 4.2,10.027 C4.00799904,9.96899971 3.8420007,9.88100059 3.702,9.763 C3.5619993,9.64499941 3.45300039,9.49900087 3.375,9.325 C3.29699961,9.15099913 3.258,8.94600118 3.258,8.71 L3.654,8.71 Z M9.204,6.892 L9.564,6.892 L9.564,10 L9.204,10 L9.204,9.568 C9.15599976,9.62400028 9.1020003,9.6819997 9.042,9.742 C8.9819997,9.8020003 8.91300039,9.85699975 8.835,9.907 C8.75699961,9.95700025 8.66600052,9.99899983 8.562,10.033 C8.45799948,10.0670002 8.33800068,10.084 8.202,10.084 C7.99399896,10.084 7.8200007,10.0550003 7.68,9.997 C7.5399993,9.93899971 7.42700043,9.85800052 7.341,9.754 C7.25499957,9.64999948 7.19300019,9.52900069 7.155,9.391 C7.11699981,9.25299931 7.098,9.10200082 7.098,8.938 L7.098,6.892 L7.458,6.892 L7.458,8.932 C7.458,9.20000134 7.51999938,9.40499929 7.644,9.547 C7.76800062,9.68900071 7.97199858,9.76 8.256,9.76 C8.40400074,9.76 8.53699941,9.73100029 8.655,9.673 C8.77300059,9.61499971 8.8719996,9.53400052 8.952,9.43 C9.0320004,9.32599948 9.09399978,9.20200072 9.138,9.058 C9.18200022,8.91399928 9.204,8.75600086 9.204,8.584 L9.204,6.892 Z M10.794,10 L10.434,10 L10.434,6.892 L10.794,6.892 L10.794,7.324 C10.9380007,7.17199924 11.0869992,7.04800048 11.241,6.952 C11.3950008,6.85599952 11.5799989,6.808 11.796,6.808 C11.988001,6.808 12.1659992,6.84099967 12.33,6.907 C12.4940008,6.97300033 12.6319994,7.08799918 12.744,7.252 C12.8200004,7.36400056 12.8649999,7.47899941 12.879,7.597 C12.8930001,7.71500059 12.9,7.83799936 12.9,7.966 L12.9,10 L12.54,10 L12.54,7.972 C12.54,7.6919986 12.4780006,7.4820007 12.354,7.342 C12.2299994,7.2019993 12.0240014,7.132 11.736,7.132 C11.6239994,7.132 11.5220005,7.14899983 11.43,7.183 C11.3379995,7.21700017 11.2550004,7.26199972 11.181,7.318 C11.1069996,7.37400028 11.0440003,7.43799964 10.992,7.51 C10.9399997,7.58200036 10.9000001,7.6579996 10.872,7.738 C10.8359998,7.8380005 10.814,7.93399954 10.806,8.026 C10.798,8.11800046 10.794,8.21799946 10.794,8.326 L10.794,10 Z" id="Sun" fill="#F40B0B" sketch:type="MSShapeGroup"></path>
    </g>
</svg>