<?xml version="1.0" encoding="UTF-8" standalone="no"?>
<svg width="16px" height="16px" viewBox="0 0 16 16" version="1.1" xmlns="http://www.w3.org/2000/svg" xmlns:xlink="http://www.w3.org/1999/xlink" xmlns:sketch="http://www.bohemiancoding.com/sketch/ns">
    <!-- Generator: Sketch 3.3.3 (12072) - http://www.bohemiancoding.com/sketch -->
    <title>Rectangle 76 Copy 29</title>
    <desc>Created with Sketch.</desc>
    <defs>
        <radialGradient cx="50%" cy="30.8898926%" fx="50%" fy="30.8898926%" r="69.1101074%" id="radialGradient-1">
            <stop stop-color="#FFFFFF" stop-opacity="0.798431839" offset="0%"></stop>
            <stop stop-color="#F1F1F1" stop-opacity="0.5" offset="100%"></stop>
        </radialGradient>
        <rect id="path-2" x="0" y="0.0739825989" width="16" height="16" rx="3"></rect>
    </defs>
    <g id="Page-1" stroke="none" stroke-width="1" fill="none" fill-rule="evenodd" sketch:type="MSPage">
        <g id="Rectangle-76-Copy-29">
            <use fill="#DBDBDB" fill-rule="evenodd" sketch:type="MSShapeGroup" xlink:href="#path-2"></use>
            <use fill="none" xlink:href="#path-2"></use>
            <use fill="url(#radialGradient-1)" fill-rule="evenodd" xlink:href="#path-2"></use>
        </g>
        <path d="M4.154,8.71 C4.17000008,8.90200096 4.21299965,9.06499933 4.283,9.199 C4.35300035,9.33300067 4.44299945,9.44199958 4.553,9.526 C4.66300055,9.61000042 4.78999928,9.67099981 4.934,9.709 C5.07800072,9.74700019 5.23199918,9.766 5.396,9.766 C5.58800096,9.766 5.7539993,9.74200024 5.894,9.694 C6.0340007,9.64599976 6.14799956,9.58100041 6.236,9.499 C6.32400044,9.41699959 6.38899979,9.32200054 6.431,9.214 C6.47300021,9.10599946 6.494,8.9920006 6.494,8.872 C6.494,8.70399916 6.45600038,8.56800052 6.38,8.464 C6.30399962,8.35999948 6.20500061,8.27500033 6.083,8.209 C5.96099939,8.14299967 5.82100079,8.0900002 5.663,8.05 C5.50499921,8.0099998 5.34300083,7.97100019 5.177,7.933 C5.01099917,7.89499981 4.84900079,7.85000026 4.691,7.798 C4.53299921,7.74599974 4.39300061,7.67600044 4.271,7.588 C4.14899939,7.49999956 4.05000038,7.38700069 3.974,7.249 C3.89799962,7.11099931 3.86,6.93600106 3.86,6.724 C3.86,6.57599926 3.89099969,6.4320007 3.953,6.292 C4.01500031,6.1519993 4.10699939,6.02800054 4.229,5.92 C4.35100061,5.81199946 4.50399908,5.72600032 4.688,5.662 C4.87200092,5.59799968 5.0839988,5.566 5.324,5.566 C5.56800122,5.566 5.78099909,5.59999966 5.963,5.668 C6.14500091,5.73600034 6.2959994,5.82899941 6.416,5.947 C6.5360006,6.06500059 6.6259997,6.20199922 6.686,6.358 C6.7460003,6.51400078 6.776,6.67999912 6.776,6.856 L6.386,6.856 C6.386,6.69199918 6.35700029,6.5500006 6.299,6.43 C6.24099971,6.3099994 6.1620005,6.21200038 6.062,6.136 C5.9619995,6.05999962 5.84800064,6.00400018 5.72,5.968 C5.59199936,5.93199982 5.46000068,5.914 5.324,5.914 C5.11599896,5.914 4.94100071,5.94299971 4.799,6.001 C4.65699929,6.05900029 4.54400042,6.13399954 4.46,6.226 C4.37599958,6.31800046 4.31800016,6.41999944 4.286,6.532 C4.25399984,6.64400056 4.2479999,6.75599944 4.268,6.868 C4.29200012,7.0080007 4.34799956,7.11999958 4.436,7.204 C4.52400044,7.28800042 4.63199936,7.35699973 4.76,7.411 C4.88800064,7.46500027 5.02899923,7.50899983 5.183,7.543 C5.33700077,7.57700017 5.4939992,7.61299981 5.654,7.651 C5.8140008,7.68900019 5.96899925,7.73399974 6.119,7.786 C6.26900075,7.83800026 6.40199942,7.90799956 6.518,7.996 C6.63400058,8.08400044 6.72699965,8.19699931 6.797,8.335 C6.86700035,8.47300069 6.902,8.64599896 6.902,8.854 C6.902,9.254002 6.76400138,9.5639989 6.488,9.784 C6.21199862,10.0040011 5.8240025,10.114 5.324,10.114 C5.09999888,10.114 4.89200096,10.0850003 4.7,10.027 C4.50799904,9.96899971 4.3420007,9.88100059 4.202,9.763 C4.0619993,9.64499941 3.95300039,9.49900087 3.875,9.325 C3.79699961,9.15099913 3.758,8.94600118 3.758,8.71 L4.154,8.71 Z M9.632,8.368 C9.47999924,8.43200032 9.32600078,8.4739999 9.17,8.494 C9.01399922,8.5140001 8.85800078,8.52999994 8.702,8.542 C8.42599862,8.5620001 8.21100077,8.62399948 8.057,8.728 C7.90299923,8.83200052 7.826,8.98999894 7.826,9.202 C7.826,9.29800048 7.84499981,9.38099965 7.883,9.451 C7.92100019,9.52100035 7.97099969,9.57899977 8.033,9.625 C8.09500031,9.67100023 8.16699959,9.70499989 8.249,9.727 C8.33100041,9.74900011 8.41399958,9.76 8.498,9.76 C8.64200072,9.76 8.78199932,9.74200018 8.918,9.706 C9.05400068,9.66999982 9.17499947,9.61500037 9.281,9.541 C9.38700053,9.46699963 9.47199968,9.37300057 9.536,9.259 C9.60000032,9.14499943 9.632,9.01000078 9.632,8.854 L9.632,8.368 Z M9.026,8.188 C9.09400034,8.17999996 9.17499953,8.16800008 9.269,8.152 C9.36300047,8.13599992 9.4399997,8.11400014 9.5,8.086 C9.5600003,8.05799986 9.59699993,8.01100033 9.611,7.945 C9.62500007,7.87899967 9.632,7.81800028 9.632,7.762 C9.632,7.57799908 9.57300059,7.42700059 9.455,7.309 C9.33699941,7.19099941 9.1380014,7.132 8.858,7.132 C8.73399938,7.132 8.62000052,7.14299989 8.516,7.165 C8.41199948,7.18700011 8.32100039,7.22499973 8.243,7.279 C8.16499961,7.33300027 8.10100025,7.40499955 8.051,7.495 C8.00099975,7.58500045 7.96800008,7.69799932 7.952,7.834 L7.586,7.834 C7.59800006,7.64999908 7.63999964,7.49300065 7.712,7.363 C7.78400036,7.23299935 7.87699943,7.12700041 7.991,7.045 C8.10500057,6.96299959 8.23699925,6.90300019 8.387,6.865 C8.53700075,6.82699981 8.69599916,6.808 8.864,6.808 C9.02000078,6.808 9.16699931,6.82499983 9.305,6.859 C9.44300069,6.89300017 9.56299949,6.94699963 9.665,7.021 C9.76700051,7.09500037 9.84699971,7.19399938 9.905,7.318 C9.96300029,7.44200062 9.992,7.5939991 9.992,7.774 L9.992,9.466 C9.992,9.6060007 10.0169997,9.69499981 10.067,9.733 C10.1170003,9.77100019 10.2179992,9.76200028 10.37,9.706 L10.37,9.988 C10.3419999,9.99600004 10.3010003,10.0079999 10.247,10.024 C10.1929997,10.0400001 10.1400003,10.048 10.088,10.048 C10.0319997,10.048 9.97800026,10.0420001 9.926,10.03 C9.8659997,10.022 9.81800018,10.0030002 9.782,9.973 C9.74599982,9.94299985 9.71700011,9.90700021 9.695,9.865 C9.67299989,9.82299979 9.65800004,9.77700025 9.65,9.727 C9.64199996,9.67699975 9.638,9.62400028 9.638,9.568 C9.48599924,9.73600084 9.31200098,9.86399956 9.116,9.952 C8.91999902,10.0400004 8.70800114,10.084 8.48,10.084 C8.34399932,10.084 8.21300063,10.0660002 8.087,10.03 C7.96099937,9.99399982 7.85000048,9.93800038 7.754,9.862 C7.65799952,9.78599962 7.58200028,9.69300055 7.526,9.583 C7.46999972,9.47299945 7.442,9.34200076 7.442,9.19 C7.442,8.66199736 7.80399638,8.35000048 8.528,8.254 L9.026,8.188 Z M12.026,10.012 C11.9819998,10.02 11.9240004,10.0339999 11.852,10.054 C11.7799996,10.0740001 11.7000004,10.084 11.612,10.084 C11.4319991,10.084 11.2950005,10.0390005 11.201,9.949 C11.1069995,9.85899955 11.06,9.69800116 11.06,9.466 L11.06,7.192 L10.622,7.192 L10.622,6.892 L11.06,6.892 L11.06,6.028 L11.42,6.028 L11.42,6.892 L12.002,6.892 L12.002,7.192 L11.42,7.192 L11.42,9.322 C11.42,9.39800038 11.422,9.46399972 11.426,9.52 C11.43,9.57600028 11.4419999,9.62199982 11.462,9.658 C11.4820001,9.69400018 11.5129998,9.71999992 11.555,9.736 C11.5970002,9.75200008 11.6559996,9.76 11.732,9.76 C11.7800002,9.76 11.8289997,9.75600004 11.879,9.748 C11.9290002,9.73999996 11.9779998,9.73000006 12.026,9.718 L12.026,10.012 Z" id="Sat-Copy" fill="#F40B0B" sketch:type="MSShapeGroup"></path>
    </g>
</svg>